<svg display="none" width="0" height="0" version="1.1" xmlns="http://www.w3.org/2000/svg">
    <defs>
        <symbol id="logo-KiWiMaps-tagline" viewBox="0 0 541.5 150.5">
            <path stroke="transparent"
                  d="M115.7,130.4v8.9h5.9v-1h-4.8v-7.9H115.7L115.7,130.4z M131.2,130.5c0-0.3-0.3-0.6-0.6-0.6c-0.3,0-0.6,0.3-0.6,0.6c0,0.3,0.2,0.5,0.4,0.6c-0.2,0.2-0.4,0.4-0.6,0.6l0.3,0.4C130.8,131.7,131.2,131.1,131.2,130.5L131.2,130.5z M139.9,130.4v8.9h5.9v-1h-4.8V135h3.7v-1h-3.7v-2.5h4.8v-1H139.9L139.9,130.4z M162.8,130.4l-3.8,4.8l-3.8-4.8h-0.6v8.9h1.1v-6.9l3.4,4.3l3.4-4.3v6.9h1.1v-8.9H162.8L162.8,130.4z M173.8,134.4v-2.9h2.7c0.8,0,1.5,0.7,1.5,1.5c0,0.9-0.8,1.5-1.5,1.5H173.8L173.8,134.4z M172.7,130.4v8.9h1.1v-3.9h2.9c1.4,0,2.5-1.1,2.5-2.5c0-1.5-1.1-2.5-2.5-2.5H172.7L172.7,130.4z M189,131.4h2.7c0.8,0,1.5,0.7,1.5,1.5c0,0.9-0.8,1.5-1.5,1.5H189V131.4L189,131.4z M194.8,139.3l-2.4-4c1.2-0.3,1.9-1.2,1.9-2.4c0-1.5-1.2-2.5-2.5-2.5h-4v8.9h1.1v-3.9h2.3l2.3,3.9H194.8L194.8,139.3z M203.8,130.4v8.9h5.9v-1h-4.8V135h3.7v-1h-3.7v-2.5h4.8v-1H203.8L203.8,130.4z M218.4,139.3h1.1v-8.9h-1.1V139.3L218.4,139.3z M235.1,130.4v7l-5.7-7h-0.6v8.9h1.1v-7l5.7,7h0.7v-8.9H235.1L235.1,130.4z M245,130.4v1h3.3v7.9h1.1v-7.9h3.3v-1H245L245,130.4z M261.4,130.4v8.9h5.9v-1h-4.8V135h3.7v-1h-3.7v-2.5h4.8v-1H261.4L261.4,130.4z M289.4,138.3H288v-6.9h1.5c2,0,3.4,1.6,3.4,3.4C292.8,136.8,291.3,138.3,289.4,138.3L289.4,138.3z M289.4,130.4h-2.6v8.9h2.6c2.5,0,4.5-2,4.5-4.5C293.9,132.4,291.9,130.4,289.4,130.4L289.4,130.4z M302.8,130.4v8.9h5.9v-1H304V135h3.7v-1H304v-2.5h4.8v-1H302.8L302.8,130.4zM334.9,130.4l-3,7.4l-3-7.4h-1.2l3.6,8.9h1.1l3.6-8.9H334.9L334.9,130.4z M344.6,134.9c0-1.9,1.5-3.4,3.4-3.4c1.9,0,3.4,1.5,3.4,3.4c0,1.9-1.4,3.4-3.4,3.4C346,138.3,344.6,136.7,344.6,134.9L344.6,134.9z M343.4,134.9c0,2.4,1.9,4.5,4.5,4.5c2.4,0,4.5-1.8,4.5-4.5c0-2.4-1.8-4.5-4.5-4.5C345.5,130.4,343.4,132.3,343.4,134.9L343.4,134.9z M361.1,137.8c1.3,1.1,2.6,1.6,3.8,1.6c1.9,0,3.4-1.1,3.4-2.6c0-3.4-6-1.6-6-3.8c0-1,0.9-1.5,2.1-1.5c0.9,0,1.9,0.3,2.6,0.8l0.6-0.8c-1-0.7-2.2-1.1-3.3-1.1c-1.7,0-3.2,0.9-3.2,2.6c0,3.2,6,1.5,6,3.7c0,0.9-1,1.6-2.3,1.6c-1,0-2.1-0.4-3.1-1.3L361.1,137.8L361.1,137.8z M387.6,137.8c1.3,1.1,2.6,1.6,3.8,1.6c1.9,0,3.4-1.1,3.4-2.6c0-3.4-6-1.6-6-3.8c0-1,0.9-1.5,2.1-1.5c0.9,0,1.9,0.3,2.6,0.8l0.6-0.8c-1-0.7-2.2-1.1-3.3-1.1c-1.7,0-3.2,0.9-3.2,2.6c0,3.2,6,1.5,6,3.7c0,0.9-1,1.6-2.3,1.6c-1,0-2.1-0.4-3.1-1.3L387.6,137.8L387.6,137.8z M404.6,134.9c0-1.9,1.5-3.4,3.4-3.4c1.9,0,3.4,1.5,3.4,3.4c0,1.9-1.4,3.4-3.4,3.4C406,138.3,404.6,136.7,404.6,134.9L404.6,134.9z M403.4,134.9c0,2.4,1.9,4.5,4.5,4.5c2.4,0,4.5-1.8,4.5-4.5c0-2.4-1.8-4.5-4.5-4.5C405.6,130.4,403.4,132.3,403.4,134.9L403.4,134.9z M421.4,130.4v8.9h5.9v-1h-4.8v-7.9H421.4L421.4,130.4z M435.7,137.8c1.3,1.1,2.6,1.6,3.8,1.6c1.9,0,3.4-1.1,3.4-2.6c0-3.4-6-1.6-6-3.8c0-1,0.9-1.5,2.1-1.5c0.9,0,1.9,0.3,2.6,0.8l0.6-0.8c-1-0.7-2.2-1.1-3.3-1.1c-1.7,0-3.2,0.9-3.2,2.6c0,3.2,6,1.5,6,3.7c0,0.9-1,1.6-2.3,1.6c-1,0-2.1-0.4-3.1-1.3L435.7,137.8L435.7,137.8z"/>
        </symbol>
    </defs>
    <defs>
        <symbol id="logo-KiWiMaps" viewBox="0 12 541.5 125.1">
            <path stroke="transparent" fill="#98C220"
                  d="M224.2,31c6,0,10.8-4.8,10.8-10.8c0-6-4.8-10.8-10.8-10.8c-6,0-10.8,4.8-10.8,10.8C213.4,26.2,218.2,31,224.2,31L224.2,31z"/>
            <path stroke="transparent"
                  d="M233.5,40.3c8.2,0,15.2,3,21,8.8c5.7,5.8,8.6,12.9,8.6,21.1v33.5c0.8-0.5,1.6-1.1,2.4-1.9c2.3-2.3,3.4-4.8,3.4-8V70.3c0-8.2,2.9-15.3,8.6-21.1c5.7-5.9,12.8-8.8,21-8.8c8.2,0,15.2,3,20.9,8.9c5.6,5.8,8.5,12.9,8.5,21.1v23.6c0,3.2,1.1,5.7,3.4,8c0.8,0.8,1.6,1.4,2.4,1.9V70.3c0-9.7-3.4-17.8-10.3-24.6c-6.9-6.9-15.1-10.2-24.9-10.2c-5.4,0-10.6,1.2-15.5,3.6c-4.9,2.4-9,5.8-12.4,10.1l-4.4,5.6l-4.4-5.6c-3.4-4.3-7.7-7.7-12.6-10.2c-4.9-2.4-10.1-3.6-15.5-3.6"/>
            <path stroke="transparent" fill="#98C220"
                  d="M215.6,73.7c0.2,9.5,4,13.4,7.9,15c1.8-2.1,5.9-8.3,5.9-18.1l-0.1-35.2c-3.7,0-6.9,1.3-9.6,4.1c-2.7,2.8-3.9,7.1-3.9,11.1l-0.2,20.1"/>
            <path stroke="transparent"
                  d="M214.2,76.3c-0.9,2.9-2.5,5.5-4.8,7.8c-3.9,4-8.6,6-14.2,6c-5.6,0-10.4-2-14.3-6c-3.9-4-5.9-8.8-5.9-14.4V49.9c0-3.9-1.4-7.3-4.2-10.1c-2.8-2.8-6.2-4.5-10.1-4.5v34.4c0,5.6-2,10.4-5.9,14.4c-3.9,4-8.7,6-14.3,6c-5.6,0-10.3-2-14.2-6c-3.9-4-5.9-8.8-5.9-14.4V49.9c0-3.9-1.4-7.3-4.2-10.1c-2.8-2.8-6.2-4.6-10.1-4.6v34.5c0,9.4,3.4,17.4,10.1,24c6.7,6.6,14.8,9.9,24.2,9.9c5.3,0,10.3-1.2,15.1-3.5c4.8-2.4,8.9-5.6,12.3-9.8c3.3,4.2,7.3,7.5,12.1,9.8c4.8,2.4,9.8,3.5,15.1,3.5c9.5,0,17.6-3.3,24.3-9.9c1.1-1.1,2.1-2.2,3-3.4C218.7,88.4,214.8,84.4,214.2,76.3L214.2,76.3z M89.1,99.5c2.8,2.8,6.2,4.2,10.1,4.2V49.9c0-3.9-1.4-7.3-4.2-10.1c-2.8-2.8-6.2-4.5-10.1-4.5v54C84.9,93.3,86.3,96.7,89.1,99.5L89.1,99.5zM63.8,103.7h14.3v-6c0-5.4-1.2-10.5-3.7-15.3c-2.5-4.8-5.9-8.8-10.3-12c4.4-3.2,7.8-7.2,10.3-12c2.5-4.8,3.7-9.9,3.7-15.4v-7.7H63.8V43c0,5.6-2,10.4-5.9,14.5c-3.9,4.1-8.6,6.1-14.2,6.1H24.9V49.9c0-3.9-1.4-7.3-4.2-10.1c-2.8-2.8-6.2-4.2-10.1-4.2v68.1h14.3V77.1h18.9c5.6,0,10.3,2,14.2,6.1c3.9,4.1,5.9,8.9,5.9,14.5V103.7L63.8,103.7z"/>
            <path stroke-width="2" stroke-miterlimit="7.8935"
                  d="M404.8,36.1h-3.1v19.5c-2.8-5.9-6.9-10.6-12.4-14.1c-5.4-3.5-11.4-5.2-17.9-5.2c-9.3,0-17.2,3.3-23.8,9.8c-6.4,6.4-9.7,14.3-9.7,23.6c0,9.3,3.2,17.2,9.7,23.8c6.5,6.4,14.4,9.7,23.8,9.7c6.5,0,12.5-1.7,17.9-5.2c5.4-3.5,9.6-8.2,12.4-14.1v19.3l3.1,0.1V36.1L404.8,36.1z M392.8,91.3c-6,5.9-13.2,8.8-21.4,8.8c-8.5,0-15.7-2.9-21.5-8.8c-5.9-5.9-8.8-13-8.8-21.5c0-8.5,2.9-15.7,8.8-21.5c5.9-5.9,13-8.8,21.5-8.8c7.3,0,13.7,2.3,19.2,6.8c5.6,4.5,9.1,10.4,10.5,17.4c0.2,1.2,0.3,2.2,0.4,3.3c0.1,1,0.2,2,0.2,2.9C401.7,78.2,398.7,85.4,392.8,91.3L392.8,91.3L392.8,91.3z M469.1,46.1c-6.4-6.5-14.3-9.8-23.6-9.8c-6.5,0-12.5,1.7-17.9,5.2c-5.4,3.5-9.6,8.2-12.4,14.1V36h-3.1v78.6h3.1V83.9c2.8,5.9,6.9,10.6,12.4,14.1c5.4,3.5,11.4,5.2,17.9,5.2c9.4,0,17.3-3.2,23.8-9.7c6.4-6.4,9.7-14.4,9.7-23.8C478.9,60.4,475.7,52.6,469.1,46.1L469.1,46.1L469.1,46.1z M467,91.3c-5.9,5.9-13,8.8-21.5,8.8c-7.8,0-14.8-2.8-21-8.4c-6.2-5.7-9.3-12.4-9.3-20.2v-3.6c0-8.1,3-14.8,9-20.3c6-5.4,13.1-8.2,21.3-8.2c8.4,0,15.5,3,21.4,8.9c5.9,5.9,8.9,13,8.9,21.4C475.8,78.3,472.9,85.4,467,91.3L467,91.3L467,91.3z M509.5,66.6c-11.1-1.5-16.9-5.5-17.6-12.1c-0.4-4.7,1.5-8.6,5.8-11.6c2.7-2,5.7-3.1,8.8-3.3c6-0.5,10.8,1.8,14.5,6.9h4c-4.7-7.1-10.9-10.4-18.7-9.9c-3.8,0.2-7.2,1.5-10.3,3.8c-4.5,3.4-6.8,7.6-6.9,12.6c-0.2,5.4,2,9.4,6.6,12.3c2.2,1.3,4.5,2.3,6.9,3c0.7,0.2,1.6,0.4,2.8,0.6c1.2,0.2,2.7,0.5,4.5,0.8c12,1.9,18.1,7.1,18.1,15.7c0,4.5-2.1,8.2-6.2,11.1c-3.9,2.7-8.1,4.1-12.6,4.1c-3.2,0-6.2-0.5-8.8-1.4c-2.7-0.9-5-2.3-6.9-4c-1.9-1.7-3.4-3.9-4.5-6.4c-1.1-2.5-1.6-5.4-1.6-8.6v-0.1h-3.1V80c0,7.2,2.3,12.9,7.1,17.2c4.7,4.2,10.6,6.3,17.8,6.3c5.6,0,10.6-1.7,14.8-4.9c4.7-3.5,7.1-8,7.1-13.5C531,74.7,523.8,68.5,509.5,66.6L509.5,66.6L509.5,66.6z"/>
        </symbol>
    </defs>
    <defs>
        <symbol id="edit" viewBox="0 0 576 512">
            <path d="M402.6 83.2l90.2 90.2c3.8 3.8 3.8 10 0 13.8L274.4 405.6l-92.8 10.3c-12.4 1.4-22.9-9.1-21.5-21.5l10.3-92.8L388.8 83.2c3.8-3.8 10-3.8 13.8 0zm162-22.9l-48.8-48.8c-15.2-15.2-39.9-15.2-55.2 0l-35.4 35.4c-3.8 3.8-3.8 10 0 13.8l90.2 90.2c3.8 3.8 10 3.8 13.8 0l35.4-35.4c15.2-15.3 15.2-40 0-55.2zM384 346.2V448H64V128h229.8c3.2 0 6.2-1.3 8.5-3.5l40-40c7.6-7.6 2.2-20.5-8.5-20.5H48C21.5 64 0 85.5 0 112v352c0 26.5 21.5 48 48 48h352c26.5 0 48-21.5 48-48V306.2c0-10.7-12.9-16-20.5-8.5l-40 40c-2.2 2.3-3.5 5.3-3.5 8.5z"/>
        </symbol>
    </defs>
    <defs>
        <symbol id="drafting-compass" viewBox="0 0 512 512">
            <path d="M457.01 344.42c-25.05 20.33-52.63 37.18-82.54 49.05l54.38 94.19 53.95 23.04c9.81 4.19 20.89-2.21 22.17-12.8l7.02-58.25-54.98-95.23zm42.49-94.56c4.86-7.67 1.89-17.99-6.05-22.39l-28.07-15.57c-7.48-4.15-16.61-1.46-21.26 5.72C403.01 281.15 332.25 320 256 320c-23.93 0-47.23-4.25-69.41-11.53l67.36-116.68c.7.02 1.34.21 2.04.21s1.35-.19 2.04-.21l51.09 88.5c31.23-8.96 59.56-25.75 82.61-48.92l-51.79-89.71C347.39 128.03 352 112.63 352 96c0-53.02-42.98-96-96-96s-96 42.98-96 96c0 16.63 4.61 32.03 12.05 45.66l-68.3 118.31c-12.55-11.61-23.96-24.59-33.68-39-4.79-7.1-13.97-9.62-21.38-5.33l-27.75 16.07c-7.85 4.54-10.63 14.9-5.64 22.47 15.57 23.64 34.69 44.21 55.98 62.02L0 439.66l7.02 58.25c1.28 10.59 12.36 16.99 22.17 12.8l53.95-23.04 70.8-122.63C186.13 377.28 220.62 384 256 384c99.05 0 190.88-51.01 243.5-134.14zM256 64c17.67 0 32 14.33 32 32s-14.33 32-32 32-32-14.33-32-32 14.33-32 32-32z"/>
        </symbol>
    </defs>
    <defs>
        <symbol id="map-pin" viewBox="0 0 288 512">
            <path d="M112 316.94v156.69l22.02 33.02c4.75 7.12 15.22 7.12 19.97 0L176 473.63V316.94c-10.39 1.92-21.06 3.06-32 3.06s-21.61-1.14-32-3.06zM144 0C64.47 0 0 64.47 0 144s64.47 144 144 144 144-64.47 144-144S223.53 0 144 0zm0 76c-37.5 0-68 30.5-68 68 0 6.62-5.38 12-12 12s-12-5.38-12-12c0-50.73 41.28-92 92-92 6.62 0 12 5.38 12 12s-5.38 12-12 12z"/>
        </symbol>
    </defs>
    <defs>
    <symbol id="map-pins" viewBox="0 0 512 512">
        <path d="m238 362v118l16.5 24.8c3.56 5.34 11.4 5.34 15 0l16.5-24.8v-118c-7.79 1.44-15.8 2.3-24 2.3s-16.2-.855-24-2.3zm24-238c-59.6 0-108 48.4-108 108s48.4 108 108 108 108-48.4 108-108-48.4-108-108-108zm0 57c-28.1 0-51 22.9-51 51 0 4.96-4.04 9-9 9s-9-4.04-9-9c0-38 31-69 69-69 4.96 0 9 4.04 9 9s-4.04 9-9 9z" style="stroke-width:.75"/>
        <path d="m413 221v88.1l12.4 18.6c2.67 4 8.56 4 11.2 0l12.4-18.6v-88.1c-5.84 1.08-11.8 1.72-18 1.72s-12.2-.641-18-1.72zm18-178c-44.7 0-81 36.3-81 81 0 44.7 36.3 81 81 81 44.7 0 81-36.3 81-81 0-44.7-36.3-81-81-81zm0 42.7c-21.1 0-38.2 17.2-38.2 38.2 0 3.72-3.03 6.75-6.75 6.75s-6.75-3.03-6.75-6.75c0-28.5 23.2-51.7 51.8-51.7 3.72 0 6.75 3.03 6.75 6.75s-3.03 6.75-6.75 6.75z" style="stroke-width:.562"/>
        <path d="m77.9 166v66.1l9.29 13.9c2 3 6.42 3 8.42 0l9.29-13.9v-66.1c-4.38.81-8.88 1.29-13.5 1.29-4.62 0-9.12-.481-13.5-1.29zm13.5-134c-33.6 0-60.8 27.2-60.8 60.7 0 33.6 27.2 60.7 60.8 60.7 33.6 0 60.8-27.2 60.8-60.7 0-33.6-27.2-60.7-60.8-60.7zm0 32.1c-15.8 0-28.7 12.9-28.7 28.7 0 2.79-2.27 5.06-5.06 5.06s-5.06-2.27-5.06-5.06c0-21.4 17.4-38.8 38.8-38.8 2.79 0 5.06 2.27 5.06 5.06 0 2.79-2.27 5.06-5.06 5.06z" style="stroke-width:.422"/>
    </symbol>
    </defs>
    <defs>
        <symbol id="file-import" viewBox="0 0 512 512">
            <path d="M16 288c-8.8 0-16 7.2-16 16v32c0 8.8 7.2 16 16 16h112v-64zm489-183L407.1 7c-4.5-4.5-10.6-7-17-7H384v128h128v-6.1c0-6.3-2.5-12.4-7-16.9zm-153 31V0H152c-13.3 0-24 10.7-24 24v264h128v-65.2c0-14.3 17.3-21.4 27.4-11.3L379 308c6.6 6.7 6.6 17.4 0 24l-95.7 96.4c-10.1 10.1-27.4 3-27.4-11.3V352H128v136c0 13.3 10.7 24 24 24h336c13.3 0 24-10.7 24-24V160H376c-13.2 0-24-10.8-24-24z"/>
        </symbol>
    </defs>
    <defs>
        <symbol id="ruler" viewBox="0 0 640 512">
            <path d="M635.7 167.2L556.1 31.7c-8.8-15-28.3-20.1-43.5-11.5l-69 39.1L503.3 161c2.2 3.8.9 8.5-2.9 10.7l-13.8 7.8c-3.8 2.2-8.7.9-10.9-2.9L416 75l-55.2 31.3 27.9 47.4c2.2 3.8.9 8.5-2.9 10.7l-13.8 7.8c-3.8 2.2-8.7.9-10.9-2.9L333.2 122 278 153.3 337.8 255c2.2 3.7.9 8.5-2.9 10.7l-13.8 7.8c-3.8 2.2-8.7.9-10.9-2.9l-59.7-101.7-55.2 31.3 27.9 47.4c2.2 3.8.9 8.5-2.9 10.7l-13.8 7.8c-3.8 2.2-8.7.9-10.9-2.9l-27.9-47.5-55.2 31.3 59.7 101.7c2.2 3.7.9 8.5-2.9 10.7l-13.8 7.8c-3.8 2.2-8.7.9-10.9-2.9L84.9 262.9l-69 39.1C.7 310.7-4.6 329.8 4.2 344.8l79.6 135.6c8.8 15 28.3 20.1 43.5 11.5L624.1 210c15.2-8.6 20.4-27.8 11.6-42.8z"/>
        </symbol>
    </defs>
    <defs>
        <symbol id="filter" viewBox="0 0 512 512">
            <path d="M487.976 0H24.028C2.71 0-8.047 25.866 7.058 40.971L192 225.941V432c0 7.831 3.821 15.17 10.237 19.662l80 55.98C298.02 518.69 320 507.493 320 487.98V225.941l184.947-184.97C520.021 25.896 509.338 0 487.976 0z"/>
        </symbol>
    </defs>
    <defs>
        <symbol id="chart-area" viewBox="0 0 512 512">
            <path d="M500 384c6.6 0 12 5.4 12 12v40c0 6.6-5.4 12-12 12H12c-6.6 0-12-5.4-12-12V76c0-6.6 5.4-12 12-12h40c6.6 0 12 5.4 12 12v308h436zM372.7 159.5L288 216l-85.3-113.7c-5.1-6.8-15.5-6.3-19.9 1L96 248v104h384l-89.9-187.8c-3.2-6.5-11.4-8.7-17.4-4.7z"/>
        </symbol>
    </defs>
    <defs>
        <symbol id="dice-d20" viewBox="0 0 480 512">
            <path d="M106.75 215.06L1.2 370.95c-3.08 5 .1 11.5 5.93 12.14l208.26 22.07-108.64-190.1zM7.41 315.43L82.7 193.08 6.06 147.1c-2.67-1.6-6.06.32-6.06 3.43v162.81c0 4.03 5.29 5.53 7.41 2.09zM18.25 423.6l194.4 87.66c5.3 2.45 11.35-1.43 11.35-7.26v-65.67l-203.55-22.3c-4.45-.5-6.23 5.59-2.2 7.57zm81.22-257.78L179.4 22.88c4.34-7.06-3.59-15.25-10.78-11.14L17.81 110.35c-2.47 1.62-2.39 5.26.13 6.78l81.53 48.69zM240 176h109.21L253.63 7.62C250.5 2.54 245.25 0 240 0s-10.5 2.54-13.63 7.62L130.79 176H240zm233.94-28.9l-76.64 45.99 75.29 122.35c2.11 3.44 7.41 1.94 7.41-2.1V150.53c0-3.11-3.39-5.03-6.06-3.43zm-93.41 18.72l81.53-48.7c2.53-1.52 2.6-5.16.13-6.78l-150.81-98.6c-7.19-4.11-15.12 4.08-10.78 11.14l79.93 142.94zm79.02 250.21L256 438.32v65.67c0 5.84 6.05 9.71 11.35 7.26l194.4-87.66c4.03-1.97 2.25-8.06-2.2-7.56zm-86.3-200.97l-108.63 190.1 208.26-22.07c5.83-.65 9.01-7.14 5.93-12.14L373.25 215.06zM240 208H139.57L240 383.75 340.43 208H240z"/>
        </symbol>
    </defs>
    <defs>
        <symbol id="camera" viewBox="0 0 512 512">
            <path d="M512 144v288c0 26.5-21.5 48-48 48H48c-26.5 0-48-21.5-48-48V144c0-26.5 21.5-48 48-48h88l12.3-32.9c7-18.7 24.9-31.1 44.9-31.1h125.5c20 0 37.9 12.4 44.9 31.1L376 96h88c26.5 0 48 21.5 48 48zM376 288c0-66.2-53.8-120-120-120s-120 53.8-120 120 53.8 120 120 120 120-53.8 120-120zm-32 0c0 48.5-39.5 88-88 88s-88-39.5-88-88 39.5-88 88-88 88 39.5 88 88z"/>
        </symbol>
    </defs>
    <defs>
        <symbol id="file-excel" viewBox="0 0 384 512">
            <path d="M224 136V0H24C10.7 0 0 10.7 0 24v464c0 13.3 10.7 24 24 24h336c13.3 0 24-10.7 24-24V160H248c-13.2 0-24-10.8-24-24zm60.1 106.5L224 336l60.1 93.5c5.1 8-.6 18.5-10.1 18.5h-34.9c-4.4 0-8.5-2.4-10.6-6.3C208.9 405.5 192 373 192 373c-6.4 14.8-10 20-36.6 68.8-2.1 3.9-6.1 6.3-10.5 6.3H110c-9.5 0-15.2-10.5-10.1-18.5l60.3-93.5-60.3-93.5c-5.2-8 .6-18.5 10.1-18.5h34.8c4.4 0 8.5 2.4 10.6 6.3 26.1 48.8 20 33.6 36.6 68.5 0 0 6.1-11.7 36.6-68.5 2.1-3.9 6.2-6.3 10.6-6.3H274c9.5-.1 15.2 10.4 10.1 18.4zM384 121.9v6.1H256V0h6.1c6.4 0 12.5 2.5 17 7l97.9 98c4.5 4.5 7 10.6 7 16.9z"/>
        </symbol>
    </defs>
    <defs>
        <symbol id="share" viewBox="0 0 576 512">
            <path d="M568.482 177.448L424.479 313.433C409.3 327.768 384 317.14 384 295.985v-71.963c-144.575.97-205.566 35.113-164.775 171.353 4.483 14.973-12.846 26.567-25.006 17.33C155.252 383.105 120 326.488 120 269.339c0-143.937 117.599-172.5 264-173.312V24.012c0-21.174 25.317-31.768 40.479-17.448l144.003 135.988c10.02 9.463 10.028 25.425 0 34.896zM384 379.128V448H64V128h50.916a11.99 11.99 0 0 0 8.648-3.693c14.953-15.568 32.237-27.89 51.014-37.676C185.708 80.83 181.584 64 169.033 64H48C21.49 64 0 85.49 0 112v352c0 26.51 21.49 48 48 48h352c26.51 0 48-21.49 48-48v-88.806c0-8.288-8.197-14.066-16.011-11.302a71.83 71.83 0 0 1-34.189 3.377c-7.27-1.046-13.8 4.514-13.8 11.859z"/>
        </symbol>
    </defs>
    <defs>
        <symbol id="search-plus" viewBox="0 0 512 512">
            <path d="M304 192v32c0 6.6-5.4 12-12 12h-56v56c0 6.6-5.4 12-12 12h-32c-6.6 0-12-5.4-12-12v-56h-56c-6.6 0-12-5.4-12-12v-32c0-6.6 5.4-12 12-12h56v-56c0-6.6 5.4-12 12-12h32c6.6 0 12 5.4 12 12v56h56c6.6 0 12 5.4 12 12zm201 284.7L476.7 505c-9.4 9.4-24.6 9.4-33.9 0L343 405.3c-4.5-4.5-7-10.6-7-17V372c-35.3 27.6-79.7 44-128 44C93.1 416 0 322.9 0 208S93.1 0 208 0s208 93.1 208 208c0 48.3-16.4 92.7-44 128h16.3c6.4 0 12.5 2.5 17 7l99.7 99.7c9.3 9.4 9.3 24.6 0 34zM344 208c0-75.2-60.8-136-136-136S72 132.8 72 208s60.8 136 136 136 136-60.8 136-136z"/>
        </symbol>
    </defs>
    <defs>
        <symbol id="search-minus" viewBox="0 0 512 512">
            <path d="M304 192v32c0 6.6-5.4 12-12 12H124c-6.6 0-12-5.4-12-12v-32c0-6.6 5.4-12 12-12h168c6.6 0 12 5.4 12 12zm201 284.7L476.7 505c-9.4 9.4-24.6 9.4-33.9 0L343 405.3c-4.5-4.5-7-10.6-7-17V372c-35.3 27.6-79.7 44-128 44C93.1 416 0 322.9 0 208S93.1 0 208 0s208 93.1 208 208c0 48.3-16.4 92.7-44 128h16.3c6.4 0 12.5 2.5 17 7l99.7 99.7c9.3 9.4 9.3 24.6 0 34zM344 208c0-75.2-60.8-136-136-136S72 132.8 72 208s60.8 136 136 136 136-60.8 136-136z"/>
        </symbol>
    </defs>
    <defs>
        <symbol id="question" viewBox="0 0 512 512">
            <path d="M256 8C119.043 8 8 119.083 8 256c0 136.997 111.043 248 248 248s248-111.003 248-248C504 119.083 392.957 8 256 8zm0 448c-110.532 0-200-89.431-200-200 0-110.495 89.472-200 200-200 110.491 0 200 89.471 200 200 0 110.53-89.431 200-200 200zm107.244-255.2c0 67.052-72.421 68.084-72.421 92.863V300c0 6.627-5.373 12-12 12h-45.647c-6.627 0-12-5.373-12-12v-8.659c0-35.745 27.1-50.034 47.579-61.516 17.561-9.845 28.324-16.541 28.324-29.579 0-17.246-21.999-28.693-39.784-28.693-23.189 0-33.894 10.977-48.942 29.969-4.057 5.12-11.46 6.071-16.666 2.124l-27.824-21.098c-5.107-3.872-6.251-11.066-2.644-16.363C184.846 131.491 214.94 112 261.794 112c49.071 0 101.45 38.304 101.45 88.8zM298 368c0 23.159-18.841 42-42 42s-42-18.841-42-42 18.841-42 42-42 42 18.841 42 42z"/>
        </symbol>
    </defs>
    <defs>
        <symbol id="upload" viewBox="0 0 512 512">
            <path d="M296 384h-80c-13.3 0-24-10.7-24-24V192h-87.7c-17.8 0-26.7-21.5-14.1-34.1L242.3 5.7c7.5-7.5 19.8-7.5 27.3 0l152.2 152.2c12.6 12.6 3.7 34.1-14.1 34.1H320v168c0 13.3-10.7 24-24 24zm216-8v112c0 13.3-10.7 24-24 24H24c-13.3 0-24-10.7-24-24V376c0-13.3 10.7-24 24-24h136v8c0 30.9 25.1 56 56 56h80c30.9 0 56-25.1 56-56v-8h136c13.3 0 24 10.7 24 24zm-124 88c0-11-9-20-20-20s-20 9-20 20 9 20 20 20 20-9 20-20zm64 0c0-11-9-20-20-20s-20 9-20 20 9 20 20 20 20-9 20-20z"/>
        </symbol>
    </defs>
    <defs>
        <symbol id="calculator" viewBox="0 0 448 512">
            <path d="M400 0H48C22.4 0 0 22.4 0 48v416c0 25.6 22.4 48 48 48h352c25.6 0 48-22.4 48-48V48c0-25.6-22.4-48-48-48zM128 435.2c0 6.4-6.4 12.8-12.8 12.8H76.8c-6.4 0-12.8-6.4-12.8-12.8v-38.4c0-6.4 6.4-12.8 12.8-12.8h38.4c6.4 0 12.8 6.4 12.8 12.8v38.4zm0-128c0 6.4-6.4 12.8-12.8 12.8H76.8c-6.4 0-12.8-6.4-12.8-12.8v-38.4c0-6.4 6.4-12.8 12.8-12.8h38.4c6.4 0 12.8 6.4 12.8 12.8v38.4zm128 128c0 6.4-6.4 12.8-12.8 12.8h-38.4c-6.4 0-12.8-6.4-12.8-12.8v-38.4c0-6.4 6.4-12.8 12.8-12.8h38.4c6.4 0 12.8 6.4 12.8 12.8v38.4zm0-128c0 6.4-6.4 12.8-12.8 12.8h-38.4c-6.4 0-12.8-6.4-12.8-12.8v-38.4c0-6.4 6.4-12.8 12.8-12.8h38.4c6.4 0 12.8 6.4 12.8 12.8v38.4zm128 128c0 6.4-6.4 12.8-12.8 12.8h-38.4c-6.4 0-12.8-6.4-12.8-12.8V268.8c0-6.4 6.4-12.8 12.8-12.8h38.4c6.4 0 12.8 6.4 12.8 12.8v166.4zm0-256c0 6.4-6.4 12.8-12.8 12.8H76.8c-6.4 0-12.8-6.4-12.8-12.8V76.8C64 70.4 70.4 64 76.8 64h294.4c6.4 0 12.8 6.4 12.8 12.8v102.4z"/>
        </symbol>
    </defs>
    <defs>
        <symbol id="ruler-horizontal" viewBox="0 0 576 512">
            <path d="M544 128h-48v88c0 4.42-3.58 8-8 8h-16c-4.42 0-8-3.58-8-8v-88h-64v88c0 4.42-3.58 8-8 8h-16c-4.42 0-8-3.58-8-8v-88h-64v88c0 4.42-3.58 8-8 8h-16c-4.42 0-8-3.58-8-8v-88h-64v88c0 4.42-3.58 8-8 8h-16c-4.42 0-8-3.58-8-8v-88h-64v88c0 4.42-3.58 8-8 8H88c-4.42 0-8-3.58-8-8v-88H32c-17.67 0-32 14.33-32 32v192c0 17.67 14.33 32 32 32h512c17.67 0 32-14.33 32-32V160c0-17.67-14.33-32-32-32z"/>
        </symbol>
    </defs>
    <defs>
        <symbol id="vector-square" viewBox="0 0 512 512">
            <path d="M512 128V32c0-17.67-14.33-32-32-32h-96c-17.67 0-32 14.33-32 32H160c0-17.67-14.33-32-32-32H32C14.33 0 0 14.33 0 32v96c0 17.67 14.33 32 32 32v192c-17.67 0-32 14.33-32 32v96c0 17.67 14.33 32 32 32h96c17.67 0 32-14.33 32-32h192c0 17.67 14.33 32 32 32h96c17.67 0 32-14.33 32-32v-96c0-17.67-14.33-32-32-32V160c17.67 0 32-14.33 32-32zm-96-64h32v32h-32V64zM64 64h32v32H64V64zm32 384H64v-32h32v32zm352 0h-32v-32h32v32zm-32-96h-32c-17.67 0-32 14.33-32 32v32H160v-32c0-17.67-14.33-32-32-32H96V160h32c17.67 0 32-14.33 32-32V96h192v32c0 17.67 14.33 32 32 32h32v192z"/>
        </symbol>
    </defs>
    <defs>
        <symbol id="cube" viewBox="0 0 512 512">
            <path d="M239.1 6.3l-208 78c-18.7 7-31.1 25-31.1 45v225.1c0 18.2 10.3 34.8 26.5 42.9l208 104c13.5 6.8 29.4 6.8 42.9 0l208-104c16.3-8.1 26.5-24.8 26.5-42.9V129.3c0-20-12.4-37.9-31.1-44.9l-208-78C262 2.2 250 2.2 239.1 6.3zM256 68.4l192 72v1.1l-192 78-192-78v-1.1l192-72zm32 356V275.5l160-65v133.9l-160 80z"/>
        </symbol>
    </defs>
    <defs>
        <symbol id="weight" viewBox="0 0 512 512">
            <path d="M510.28 445.86l-73.03-292.13c-3.8-15.19-16.44-25.72-30.87-25.72h-60.25c3.57-10.05 5.88-20.72 5.88-32 0-53.02-42.98-96-96-96s-96 42.98-96 96c0 11.28 2.3 21.95 5.88 32h-60.25c-14.43 0-27.08 10.54-30.87 25.72L1.72 445.86C-6.61 479.17 16.38 512 48.03 512h415.95c31.64 0 54.63-32.83 46.3-66.14zM256 128c-17.64 0-32-14.36-32-32s14.36-32 32-32 32 14.36 32 32-14.36 32-32 32z"/>
        </symbol>
    </defs>
    <defs>
        <symbol id="layer" viewBox="0 0 512 512">
            <path d="M12.41 148.02l232.94 105.67c6.8 3.09 14.49 3.09 21.29 0l232.94-105.67c16.55-7.51 16.55-32.52 0-40.03L266.65 2.31a25.607 25.607 0 0 0-21.29 0L12.41 107.98c-16.55 7.51-16.55 32.53 0 40.04zm487.18 88.28l-58.09-26.33-161.64 73.27c-7.56 3.43-15.59 5.17-23.86 5.17s-16.29-1.74-23.86-5.17L70.51 209.97l-58.1 26.33c-16.55 7.5-16.55 32.5 0 40l232.94 105.59c6.8 3.08 14.49 3.08 21.29 0L499.59 276.3c16.55-7.5 16.55-32.5 0-40zm0 127.8l-57.87-26.23-161.86 73.37c-7.56 3.43-15.59 5.17-23.86 5.17s-16.29-1.74-23.86-5.17L70.29 337.87 12.41 364.1c-16.55 7.5-16.55 32.5 0 40l232.94 105.59c6.8 3.08 14.49 3.08 21.29 0L499.59 404.1c16.55-7.5 16.55-32.5 0-40z"/>
        </symbol>
    </defs>
    <defs>
        <symbol id="clone" viewBox="0 0 512 512">
            <path d="M464 0H144c-26.51 0-48 21.49-48 48v48H48c-26.51 0-48 21.49-48 48v320c0 26.51 21.49 48 48 48h320c26.51 0 48-21.49 48-48v-48h48c26.51 0 48-21.49 48-48V48c0-26.51-21.49-48-48-48zM362 464H54a6 6 0 0 1-6-6V150a6 6 0 0 1 6-6h42v224c0 26.51 21.49 48 48 48h224v42a6 6 0 0 1-6 6zm96-96H150a6 6 0 0 1-6-6V54a6 6 0 0 1 6-6h308a6 6 0 0 1 6 6v308a6 6 0 0 1-6 6z"/>
        </symbol>
    </defs>
    <defs>
        <symbol id="expand-arrows" viewBox="0 0 448 512">
            <path d="M448 344v112a23.94 23.94 0 0 1-24 24H312c-21.39 0-32.09-25.9-17-41l36.2-36.2L224 295.6 116.77 402.9 153 439c15.09 15.1 4.39 41-17 41H24a23.94 23.94 0 0 1-24-24V344c0-21.4 25.89-32.1 41-17l36.19 36.2L184.46 256 77.18 148.7 41 185c-15.1 15.1-41 4.4-41-17V56a23.94 23.94 0 0 1 24-24h112c21.39 0 32.09 25.9 17 41l-36.2 36.2L224 216.4l107.23-107.3L295 73c-15.09-15.1-4.39-41 17-41h112a23.94 23.94 0 0 1 24 24v112c0 21.4-25.89 32.1-41 17l-36.19-36.2L263.54 256l107.28 107.3L407 327.1c15.1-15.2 41-4.5 41 16.9z"/>
        </symbol>
    </defs>
    <defs>
        <symbol id="images" viewBox="0 0 576 512">
            <path d="M480 416v16c0 26.51-21.49 48-48 48H48c-26.51 0-48-21.49-48-48V176c0-26.51 21.49-48 48-48h16v48H54a6 6 0 0 0-6 6v244a6 6 0 0 0 6 6h372a6 6 0 0 0 6-6v-10h48zm42-336H150a6 6 0 0 0-6 6v244a6 6 0 0 0 6 6h372a6 6 0 0 0 6-6V86a6 6 0 0 0-6-6zm6-48c26.51 0 48 21.49 48 48v256c0 26.51-21.49 48-48 48H144c-26.51 0-48-21.49-48-48V80c0-26.51 21.49-48 48-48h384zM264 144c0 22.091-17.909 40-40 40s-40-17.909-40-40 17.909-40 40-40 40 17.909 40 40zm-72 96l39.515-39.515c4.686-4.686 12.284-4.686 16.971 0L288 240l103.515-103.515c4.686-4.686 12.284-4.686 16.971 0L480 208v80H192v-48z"/>
        </symbol>
    </defs>
    <defs>
        <symbol id="share-alt" viewBox="0 0 448 512">
            <path d="M352 320c-22.608 0-43.387 7.819-59.79 20.895l-102.486-64.054a96.551 96.551 0 0 0 0-41.683l102.486-64.054C308.613 184.181 329.392 192 352 192c53.019 0 96-42.981 96-96S405.019 0 352 0s-96 42.981-96 96c0 7.158.79 14.13 2.276 20.841L155.79 180.895C139.387 167.819 118.608 160 96 160c-53.019 0-96 42.981-96 96s42.981 96 96 96c22.608 0 43.387-7.819 59.79-20.895l102.486 64.054A96.301 96.301 0 0 0 256 416c0 53.019 42.981 96 96 96s96-42.981 96-96-42.981-96-96-96z"/>
        </symbol>
    </defs>
    <defs>
        <symbol id="flask" viewBox="0 0 448 512">
            <path d="M437.2 403.5L320 215V64h8c13.3 0 24-10.7 24-24V24c0-13.3-10.7-24-24-24H120c-13.3 0-24 10.7-24 24v16c0 13.3 10.7 24 24 24h8v151L10.8 403.5C-18.5 450.6 15.3 512 70.9 512h306.2c55.7 0 89.4-61.5 60.1-108.5zM137.9 320l48.2-77.6c3.7-5.2 5.8-11.6 5.8-18.4V64h64v160c0 6.9 2.2 13.2 5.8 18.4l48.2 77.6h-172z"/>
        </symbol>
    </defs>
    <defs>
        <symbol id="key" viewBox="0 0 512 512">
            <path d="M512 176.001C512 273.203 433.202 352 336 352c-11.22 0-22.19-1.062-32.827-3.069l-24.012 27.014A23.999 23.999 0 0 1 261.223 384H224v40c0 13.255-10.745 24-24 24h-40v40c0 13.255-10.745 24-24 24H24c-13.255 0-24-10.745-24-24v-78.059c0-6.365 2.529-12.47 7.029-16.971l161.802-161.802C163.108 213.814 160 195.271 160 176 160 78.798 238.797.001 335.999 0 433.488-.001 512 78.511 512 176.001zM336 128c0 26.51 21.49 48 48 48s48-21.49 48-48-21.49-48-48-48-48 21.49-48 48z"/>
        </symbol>
    </defs>
    <defs>
        <symbol id="address-card" viewBox="0 0 576 512">
            <path d="M528 32H48C21.5 32 0 53.5 0 80v352c0 26.5 21.5 48 48 48h480c26.5 0 48-21.5 48-48V80c0-26.5-21.5-48-48-48zm-352 96c35.3 0 64 28.7 64 64s-28.7 64-64 64-64-28.7-64-64 28.7-64 64-64zm112 236.8c0 10.6-10 19.2-22.4 19.2H86.4C74 384 64 375.4 64 364.8v-19.2c0-31.8 30.1-57.6 67.2-57.6h5c12.3 5.1 25.7 8 39.8 8s27.6-2.9 39.8-8h5c37.1 0 67.2 25.8 67.2 57.6v19.2zM512 312c0 4.4-3.6 8-8 8H360c-4.4 0-8-3.6-8-8v-16c0-4.4 3.6-8 8-8h144c4.4 0 8 3.6 8 8v16zm0-64c0 4.4-3.6 8-8 8H360c-4.4 0-8-3.6-8-8v-16c0-4.4 3.6-8 8-8h144c4.4 0 8 3.6 8 8v16zm0-64c0 4.4-3.6 8-8 8H360c-4.4 0-8-3.6-8-8v-16c0-4.4 3.6-8 8-8h144c4.4 0 8 3.6 8 8v16z"/>
        </symbol>
    </defs>
    <defs>
        <symbol id="cogs" viewBox="0 0 640 512">
            <path d="M512.1 191l-8.2 14.3c-3 5.3-9.4 7.5-15.1 5.4-11.8-4.4-22.6-10.7-32.1-18.6-4.6-3.8-5.8-10.5-2.8-15.7l8.2-14.3c-6.9-8-12.3-17.3-15.9-27.4h-16.5c-6 0-11.2-4.3-12.2-10.3-2-12-2.1-24.6 0-37.1 1-6 6.2-10.4 12.2-10.4h16.5c3.6-10.1 9-19.4 15.9-27.4l-8.2-14.3c-3-5.2-1.9-11.9 2.8-15.7 9.5-7.9 20.4-14.2 32.1-18.6 5.7-2.1 12.1.1 15.1 5.4l8.2 14.3c10.5-1.9 21.2-1.9 31.7 0L552 6.3c3-5.3 9.4-7.5 15.1-5.4 11.8 4.4 22.6 10.7 32.1 18.6 4.6 3.8 5.8 10.5 2.8 15.7l-8.2 14.3c6.9 8 12.3 17.3 15.9 27.4h16.5c6 0 11.2 4.3 12.2 10.3 2 12 2.1 24.6 0 37.1-1 6-6.2 10.4-12.2 10.4h-16.5c-3.6 10.1-9 19.4-15.9 27.4l8.2 14.3c3 5.2 1.9 11.9-2.8 15.7-9.5 7.9-20.4 14.2-32.1 18.6-5.7 2.1-12.1-.1-15.1-5.4l-8.2-14.3c-10.4 1.9-21.2 1.9-31.7 0zm-10.5-58.8c38.5 29.6 82.4-14.3 52.8-52.8-38.5-29.7-82.4 14.3-52.8 52.8zM386.3 286.1l33.7 16.8c10.1 5.8 14.5 18.1 10.5 29.1-8.9 24.2-26.4 46.4-42.6 65.8-7.4 8.9-20.2 11.1-30.3 5.3l-29.1-16.8c-16 13.7-34.6 24.6-54.9 31.7v33.6c0 11.6-8.3 21.6-19.7 23.6-24.6 4.2-50.4 4.4-75.9 0-11.5-2-20-11.9-20-23.6V418c-20.3-7.2-38.9-18-54.9-31.7L74 403c-10 5.8-22.9 3.6-30.3-5.3-16.2-19.4-33.3-41.6-42.2-65.7-4-10.9.4-23.2 10.5-29.1l33.3-16.8c-3.9-20.9-3.9-42.4 0-63.4L12 205.8c-10.1-5.8-14.6-18.1-10.5-29 8.9-24.2 26-46.4 42.2-65.8 7.4-8.9 20.2-11.1 30.3-5.3l29.1 16.8c16-13.7 34.6-24.6 54.9-31.7V57.1c0-11.5 8.2-21.5 19.6-23.5 24.6-4.2 50.5-4.4 76-.1 11.5 2 20 11.9 20 23.6v33.6c20.3 7.2 38.9 18 54.9 31.7l29.1-16.8c10-5.8 22.9-3.6 30.3 5.3 16.2 19.4 33.2 41.6 42.1 65.8 4 10.9.1 23.2-10 29.1l-33.7 16.8c3.9 21 3.9 42.5 0 63.5zm-117.6 21.1c59.2-77-28.7-164.9-105.7-105.7-59.2 77 28.7 164.9 105.7 105.7zm243.4 182.7l-8.2 14.3c-3 5.3-9.4 7.5-15.1 5.4-11.8-4.4-22.6-10.7-32.1-18.6-4.6-3.8-5.8-10.5-2.8-15.7l8.2-14.3c-6.9-8-12.3-17.3-15.9-27.4h-16.5c-6 0-11.2-4.3-12.2-10.3-2-12-2.1-24.6 0-37.1 1-6 6.2-10.4 12.2-10.4h16.5c3.6-10.1 9-19.4 15.9-27.4l-8.2-14.3c-3-5.2-1.9-11.9 2.8-15.7 9.5-7.9 20.4-14.2 32.1-18.6 5.7-2.1 12.1.1 15.1 5.4l8.2 14.3c10.5-1.9 21.2-1.9 31.7 0l8.2-14.3c3-5.3 9.4-7.5 15.1-5.4 11.8 4.4 22.6 10.7 32.1 18.6 4.6 3.8 5.8 10.5 2.8 15.7l-8.2 14.3c6.9 8 12.3 17.3 15.9 27.4h16.5c6 0 11.2 4.3 12.2 10.3 2 12 2.1 24.6 0 37.1-1 6-6.2 10.4-12.2 10.4h-16.5c-3.6 10.1-9 19.4-15.9 27.4l8.2 14.3c3 5.2 1.9 11.9-2.8 15.7-9.5 7.9-20.4 14.2-32.1 18.6-5.7 2.1-12.1-.1-15.1-5.4l-8.2-14.3c-10.4 1.9-21.2 1.9-31.7 0zM501.6 431c38.5 29.6 82.4-14.3 52.8-52.8-38.5-29.6-82.4 14.3-52.8 52.8z"/>
        </symbol>
    </defs>
    <defs>
        <symbol id="plus-circle" viewBox="0 0 512 512">
            <path d="M256 8C119 8 8 119 8 256s111 248 248 248 248-111 248-248S393 8 256 8zm144 276c0 6.6-5.4 12-12 12h-92v92c0 6.6-5.4 12-12 12h-56c-6.6 0-12-5.4-12-12v-92h-92c-6.6 0-12-5.4-12-12v-56c0-6.6 5.4-12 12-12h92v-92c0-6.6 5.4-12 12-12h56c6.6 0 12 5.4 12 12v92h92c6.6 0 12 5.4 12 12v56z"/>
        </symbol>
    </defs>
    <defs>
        <symbol id="user" viewBox="0 0 448 512">
            <path d="M224 256c70.7 0 128-57.3 128-128S294.7 0 224 0 96 57.3 96 128s57.3 128 128 128zm89.6 32h-16.7c-22.2 10.2-46.9 16-72.9 16s-50.6-5.8-72.9-16h-16.7C60.2 288 0 348.2 0 422.4V464c0 26.5 21.5 48 48 48h352c26.5 0 48-21.5 48-48v-41.6c0-74.2-60.2-134.4-134.4-134.4z"/>
        </symbol>
    </defs>
    <defs>
        <symbol id="user-friends" viewBox="0 0 640 512">
            <path d="M192 256c61.9 0 112-50.1 112-112S253.9 32 192 32 80 82.1 80 144s50.1 112 112 112zm76.8 32h-8.3c-20.8 10-43.9 16-68.5 16s-47.6-6-68.5-16h-8.3C51.6 288 0 339.6 0 403.2V432c0 26.5 21.5 48 48 48h288c26.5 0 48-21.5 48-48v-28.8c0-63.6-51.6-115.2-115.2-115.2zM480 256c53 0 96-43 96-96s-43-96-96-96-96 43-96 96 43 96 96 96zm48 32h-3.8c-13.9 4.8-28.6 8-44.2 8s-30.3-3.2-44.2-8H432c-20.4 0-39.2 5.9-55.7 15.4 24.4 26.3 39.7 61.2 39.7 99.8v38.4c0 2.2-.5 4.3-.6 6.4H592c26.5 0 48-21.5 48-48 0-61.9-50.1-112-112-112z"/>
        </symbol>
    </defs>
    <defs>
        <symbol id="folder-open" viewBox="0 0 576 512">
            <path d="M572.694 292.093L500.27 416.248A63.997 63.997 0 0 1 444.989 448H45.025c-18.523 0-30.064-20.093-20.731-36.093l72.424-124.155A64 64 0 0 1 152 256h399.964c18.523 0 30.064 20.093 20.73 36.093zM152 224h328v-48c0-26.51-21.49-48-48-48H272l-64-64H48C21.49 64 0 85.49 0 112v278.046l69.077-118.418C86.214 242.25 117.989 224 152 224z"/>
        </symbol>
    </defs>
    <defs>
        <symbol id="folder" viewBox="0 0 512 512">
            <path d="M464 128H272l-64-64H48C21.49 64 0 85.49 0 112v288c0 26.51 21.49 48 48 48h416c26.51 0 48-21.49 48-48V176c0-26.51-21.49-48-48-48z"/>
        </symbol>
    </defs>
    <defs>
        <symbol id="trash" viewBox="0 0 448 512">
            <path d="M432 32H312l-9.4-18.7A24 24 0 0 0 281.1 0H166.8a23.72 23.72 0 0 0-21.4 13.3L136 32H16A16 16 0 0 0 0 48v32a16 16 0 0 0 16 16h416a16 16 0 0 0 16-16V48a16 16 0 0 0-16-16zM53.2 467a48 48 0 0 0 47.9 45h245.8a48 48 0 0 0 47.9-45L416 128H32z"/>
        </symbol>
    </defs>
    <defs>
        <symbol id="trash-alt" viewBox="0 0 448 512">
            <path d="M32 464a48 48 0 0 0 48 48h288a48 48 0 0 0 48-48V128H32zm272-256a16 16 0 0 1 32 0v224a16 16 0 0 1-32 0zm-96 0a16 16 0 0 1 32 0v224a16 16 0 0 1-32 0zm-96 0a16 16 0 0 1 32 0v224a16 16 0 0 1-32 0zM432 32H312l-9.4-18.7A24 24 0 0 0 281.1 0H166.8a23.72 23.72 0 0 0-21.4 13.3L136 32H16A16 16 0 0 0 0 48v32a16 16 0 0 0 16 16h416a16 16 0 0 0 16-16V48a16 16 0 0 0-16-16z"/>
        </symbol>
    </defs>
    <defs>
        <symbol id="eraser" viewBox="0 0 512 512">
            <path d="M497.941 273.941c18.745-18.745 18.745-49.137 0-67.882l-160-160c-18.745-18.745-49.136-18.746-67.883 0l-256 256c-18.745 18.745-18.745 49.137 0 67.882l96 96A48.004 48.004 0 0 0 144 480h356c6.627 0 12-5.373 12-12v-40c0-6.627-5.373-12-12-12H355.883l142.058-142.059zm-302.627-62.627l137.373 137.373L265.373 416H150.628l-80-80 124.686-124.686z"/>
        </symbol>
    </defs>
    <defs>
        <symbol id="eye" viewBox="0 0 576 512">
            <path d="M288 144a110.94 110.94 0 0 0-31.24 5 55.4 55.4 0 0 1 7.24 27 56 56 0 0 1-56 56 55.4 55.4 0 0 1-27-7.24A111.71 111.71 0 1 0 288 144zm284.52 97.4C518.29 135.59 410.93 64 288 64S57.68 135.64 3.48 241.41a32.35 32.35 0 0 0 0 29.19C57.71 376.41 165.07 448 288 448s230.32-71.64 284.52-177.41a32.35 32.35 0 0 0 0-29.19zM288 400c-98.65 0-189.09-55-237.93-144C98.91 167 189.34 112 288 112s189.09 55 237.93 144C477.1 345 386.66 400 288 400z"/>
        </symbol>
    </defs>
    <defs>
        <symbol id="plus" viewBox="0 0 448 512">
            <path d="M416 208H272V64c0-17.67-14.33-32-32-32h-32c-17.67 0-32 14.33-32 32v144H32c-17.67 0-32 14.33-32 32v32c0 17.67 14.33 32 32 32h144v144c0 17.67 14.33 32 32 32h32c17.67 0 32-14.33 32-32V304h144c17.67 0 32-14.33 32-32v-32c0-17.67-14.33-32-32-32z"/>
        </symbol>
    </defs>
    <defs>
        <symbol id="info-circle" viewBox="0 0 512 512">
            <path d="M256 8C119.043 8 8 119.083 8 256c0 136.997 111.043 248 248 248s248-111.003 248-248C504 119.083 392.957 8 256 8zm0 110c23.196 0 42 18.804 42 42s-18.804 42-42 42-42-18.804-42-42 18.804-42 42-42zm56 254c0 6.627-5.373 12-12 12h-88c-6.627 0-12-5.373-12-12v-24c0-6.627 5.373-12 12-12h12v-64h-12c-6.627 0-12-5.373-12-12v-24c0-6.627 5.373-12 12-12h64c6.627 0 12 5.373 12 12v100h12c6.627 0 12 5.373 12 12v24z"/>
        </symbol>
    </defs>
    <defs>
        <symbol id="user-edit" viewBox="0 0 640 512">
            <path d="M224 256c70.7 0 128-57.3 128-128S294.7 0 224 0 96 57.3 96 128s57.3 128 128 128zm89.6 32h-16.7c-22.2 10.2-46.9 16-72.9 16s-50.6-5.8-72.9-16h-16.7C60.2 288 0 348.2 0 422.4V464c0 26.5 21.5 48 48 48h274.9c-2.4-6.8-3.4-14-2.6-21.3l6.8-60.9 1.2-11.1 7.9-7.9 77.3-77.3c-24.5-27.7-60-45.5-99.9-45.5zm45.3 145.3l-6.8 61c-1.1 10.2 7.5 18.8 17.6 17.6l60.9-6.8 137.9-137.9-71.7-71.7-137.9 137.8zM633 268.9L595.1 231c-9.3-9.3-24.5-9.3-33.8 0l-37.8 37.8-4.1 4.1 71.8 71.7 41.8-41.8c9.3-9.4 9.3-24.5 0-33.9z"/>
        </symbol>
    </defs>
    <defs>
        <symbol id="spinner" viewBox="0 0 512 512">
            <path d="M304 48c0 26.51-21.49 48-48 48s-48-21.49-48-48 21.49-48 48-48 48 21.49 48 48zm-48 368c-26.51 0-48 21.49-48 48s21.49 48 48 48 48-21.49 48-48-21.49-48-48-48zm208-208c-26.51 0-48 21.49-48 48s21.49 48 48 48 48-21.49 48-48-21.49-48-48-48zM96 256c0-26.51-21.49-48-48-48S0 229.49 0 256s21.49 48 48 48 48-21.49 48-48zm12.922 99.078c-26.51 0-48 21.49-48 48s21.49 48 48 48 48-21.49 48-48c0-26.509-21.491-48-48-48zm294.156 0c-26.51 0-48 21.49-48 48s21.49 48 48 48 48-21.49 48-48c0-26.509-21.49-48-48-48zM108.922 60.922c-26.51 0-48 21.49-48 48s21.49 48 48 48 48-21.49 48-48-21.491-48-48-48z"/>
        </symbol>
    </defs>
    <defs>
        <symbol id="lock" viewBox="0 0 448 512">
            <path d="M400 224h-24v-72C376 68.2 307.8 0 224 0S72 68.2 72 152v72H48c-26.5 0-48 21.5-48 48v192c0 26.5 21.5 48 48 48h352c26.5 0 48-21.5 48-48V272c0-26.5-21.5-48-48-48zm-104 0H152v-72c0-39.7 32.3-72 72-72s72 32.3 72 72v72z"/>
        </symbol>
    </defs>
    <defs>
        <symbol id="comment" viewBox="0 0 512 512">
            <path d="M256 32C114.6 32 0 125.1 0 240c0 47.6 19.9 91.2 52.9 126.3C38 405.7 7 439.1 6.5 439.5c-6.6 7-8.4 17.2-4.6 26S14.4 480 24 480c61.5 0 110-25.7 139.1-46.3C192 442.8 223.2 448 256 448c141.4 0 256-93.1 256-208S397.4 32 256 32zm0 368c-26.7 0-53.1-4.1-78.4-12.1l-22.7-7.2-19.5 13.8c-14.3 10.1-33.9 21.4-57.5 29 7.3-12.1 14.4-25.7 19.9-40.2l10.6-28.1-20.6-21.8C69.7 314.1 48 282.2 48 240c0-88.2 93.3-160 208-160s208 71.8 208 160-93.3 160-208 160z"/>
        </symbol>
    </defs>
    <defs>
        <symbol id="pen" viewBox="0 0 512 512">
            <path d="M290.74 93.24l128.02 128.02-277.99 277.99-114.14 12.6C11.35 513.54-1.56 500.62.14 485.34l12.7-114.22 277.9-277.88zm207.2-19.06l-60.11-60.11c-18.75-18.75-49.16-18.75-67.91 0l-56.55 56.55 128.02 128.02 56.55-56.55c18.75-18.76 18.75-49.16 0-67.91z"/>
        </symbol>
    </defs>
    <defs>
        <symbol id="search" viewBox="0 0 512 512">
            <path d="M505 442.7L405.3 343c-4.5-4.5-10.6-7-17-7H372c27.6-35.3 44-79.7 44-128C416 93.1 322.9 0 208 0S0 93.1 0 208s93.1 208 208 208c48.3 0 92.7-16.4 128-44v16.3c0 6.4 2.5 12.5 7 17l99.7 99.7c9.4 9.4 24.6 9.4 33.9 0l28.3-28.3c9.4-9.4 9.4-24.6.1-34zM208 336c-70.7 0-128-57.2-128-128 0-70.7 57.2-128 128-128 70.7 0 128 57.2 128 128 0 70.7-57.2 128-128 128z"/>
        </symbol>
    </defs>
    <defs>
        <symbol id="bars" viewBox="0 0 448 512">
            <path d="M16 132h416c8.837 0 16-7.163 16-16V76c0-8.837-7.163-16-16-16H16C7.163 60 0 67.163 0 76v40c0 8.837 7.163 16 16 16zm0 160h416c8.837 0 16-7.163 16-16v-40c0-8.837-7.163-16-16-16H16c-8.837 0-16 7.163-16 16v40c0 8.837 7.163 16 16 16zm0 160h416c8.837 0 16-7.163 16-16v-40c0-8.837-7.163-16-16-16H16c-8.837 0-16 7.163-16 16v40c0 8.837 7.163 16 16 16z"/>
        </symbol>
    </defs>
    <defs>
        <symbol id="angle-up" viewBox="0 0 320 512">
            <path d="M177 159.7l136 136c9.4 9.4 9.4 24.6 0 33.9l-22.6 22.6c-9.4 9.4-24.6 9.4-33.9 0L160 255.9l-96.4 96.4c-9.4 9.4-24.6 9.4-33.9 0L7 329.7c-9.4-9.4-9.4-24.6 0-33.9l136-136c9.4-9.5 24.6-9.5 34-.1z"/>
        </symbol>
    </defs>
    <defs>
        <symbol id="chevron-up" viewBox="0 0 448 512">
            <path d="M240.971 130.524l194.343 194.343c9.373 9.373 9.373 24.569 0 33.941l-22.667 22.667c-9.357 9.357-24.522 9.375-33.901.04L224 227.495 69.255 381.516c-9.379 9.335-24.544 9.317-33.901-.04l-22.667-22.667c-9.373-9.373-9.373-24.569 0-33.941L207.03 130.525c9.372-9.373 24.568-9.373 33.941-.001z"/>
        </symbol>
    </defs>
    <defs>
        <symbol id="check-circle-fill" viewBox="0 0 512 512">
            <path d="M504 256c0 136.967-111.033 248-248 248S8 392.967 8 256 119.033 8 256 8s248 111.033 248 248zM227.314 387.314l184-184c6.248-6.248 6.248-16.379 0-22.627l-22.627-22.627c-6.248-6.249-16.379-6.249-22.628 0L216 308.118l-70.059-70.059c-6.248-6.248-16.379-6.248-22.628 0l-22.627 22.627c-6.248 6.248-6.248 16.379 0 22.627l104 104c6.249 6.249 16.379 6.249 22.628.001z"/>
        </symbol>
    </defs>
    <defs>
        <symbol id="times-circle" viewBox="0 0 512 512">
            <path d="M256 8C119 8 8 119 8 256s111 248 248 248 248-111 248-248S393 8 256 8zm121.6 313.1c4.7 4.7 4.7 12.3 0 17L338 377.6c-4.7 4.7-12.3 4.7-17 0L256 312l-65.1 65.6c-4.7 4.7-12.3 4.7-17 0L134.4 338c-4.7-4.7-4.7-12.3 0-17l65.6-65-65.6-65.1c-4.7-4.7-4.7-12.3 0-17l39.6-39.6c4.7-4.7 12.3-4.7 17 0l65 65.7 65.1-65.6c4.7-4.7 12.3-4.7 17 0l39.6 39.6c4.7 4.7 4.7 12.3 0 17L312 256l65.6 65.1z"/>
        </symbol>
    </defs>
    <defs>
        <symbol id="hand" viewBox="0 0 448 512">
            <path d="M372.57 112.641v-10.825c0-43.612-40.52-76.691-83.039-65.546-25.629-49.5-94.09-47.45-117.982.747C130.269 26.456 89.144 57.945 89.144 102v126.13c-19.953-7.427-43.308-5.068-62.083 8.871-29.355 21.796-35.794 63.333-14.55 93.153L132.48 498.569a32 32 0 0 0 26.062 13.432h222.897c14.904 0 27.835-10.289 31.182-24.813l30.184-130.958A203.637 203.637 0 0 0 448 310.564V179c0-40.62-35.523-71.992-75.43-66.359zm27.427 197.922c0 11.731-1.334 23.469-3.965 34.886L368.707 464h-201.92L51.591 302.303c-14.439-20.27 15.023-42.776 29.394-22.605l27.128 38.079c8.995 12.626 29.031 6.287 29.031-9.283V102c0-25.645 36.571-24.81 36.571.691V256c0 8.837 7.163 16 16 16h6.856c8.837 0 16-7.163 16-16V67c0-25.663 36.571-24.81 36.571.691V256c0 8.837 7.163 16 16 16h6.856c8.837 0 16-7.163 16-16V101.125c0-25.672 36.57-24.81 36.57.691V256c0 8.837 7.163 16 16 16h6.857c8.837 0 16-7.163 16-16v-76.309c0-26.242 36.57-25.64 36.57-.691v131.563z"/>
        </symbol>
    </defs>
    <defs>
        <symbol id="undo" viewBox="0 0 512 512">
            <path d="M212.333 224.333H12c-6.627 0-12-5.373-12-12V12C0 5.373 5.373 0 12 0h48c6.627 0 12 5.373 12 12v78.112C117.773 39.279 184.26 7.47 258.175 8.007c136.906.994 246.448 111.623 246.157 248.532C504.041 393.258 393.12 504 256.333 504c-64.089 0-122.496-24.313-166.51-64.215-5.099-4.622-5.334-12.554-.467-17.42l33.967-33.967c4.474-4.474 11.662-4.717 16.401-.525C170.76 415.336 211.58 432 256.333 432c97.268 0 176-78.716 176-176 0-97.267-78.716-176-176-176-58.496 0-110.28 28.476-142.274 72.333h98.274c6.627 0 12 5.373 12 12v48c0 6.627-5.373 12-12 12z"/>
        </symbol>
    </defs>
    <defs>
        <symbol id="linkedin" viewBox="0 0 841.9 841.9">
            <path d="M32,420C32.3,203.6,205.7,31.4,422.8,32c214.9,0.6,387.3,174.1,387.1,389.6c-0.2,215.7-174.6,388.8-391,388.3C204.2,809.3,31.7,635.5,32,420L32,420z M369.8,325.4c0,102.7,0,203.3,0,305.1c30.1,0,58.6,0,89.9,0c0-49-0.4-96.5,0.2-144.1c0.2-16.3,0.9-33.1,4.8-48.7c6.5-26,25.3-38.2,52.3-37.5c25.5,0.7,42.1,13.8,47.3,40.3c3.2,16,4.3,32.6,4.5,48.9c0.6,46.8,0.2,93.6,0.2,141c32,0,61.3,0,88.3,0c0-76.5,3.6-151.6-1.3-226.2c-3.2-49.6-39.6-76.2-89.6-79.5c-40.5-2.7-78.9,1.3-110,36c-0.7-14.2-1.2-24.2-1.8-35.3C426.3,325.4,399.1,325.4,369.8,325.4L369.8,325.4z M307,325.5c-37,0-71.1,0-105.6,0c0,102.4,0,203.5,0,304.9c36.2,0,70.3,0,105.6,0C307,528.2,307,427.6,307,325.5L307,325.5z M253.4,277.8c29.9,0.2,54.2-23.2,54.7-52.6c0.5-30-25.1-55.9-54.9-55.4c-29,0.4-53.5,25.4-53.5,54.5C199.7,253.8,223.6,277.6,253.4,277.8L253.4,277.8z"/>
        </symbol>
    </defs>
    <defs>
        <symbol id="youtube" viewBox="0 0 841.9 841.9">
            <path d="M502,421.1c-44,25.4-87.4,50.3-131.2,75.6c0-50.6,0-100.5,0-151.2C414.5,370.7,458,395.7,502,421.1L502,421.1z"/>
            <path d="M809.9,420.9C809.9,206.1,635.7,32,420.9,32C206.1,32,32,206.1,32,420.9c0,214.8,174.1,388.9,388.9,388.9C635.7,809.9,809.9,635.7,809.9,420.9L809.9,420.9z M673.3,428.1c-0.3,33.5-1.7,67.1-7.2,100.2c-1.9,11.4-4.5,22.5-11,32.3c-11,16.6-26.6,26.5-46.3,28.8c-21.4,2.4-42.9,4.3-64.4,5.5c-26.3,1.4-52.7,1.8-79,2.4l-43.9,0.8c-24.9-0.4-49.7-0.4-74.6-1.2c-25.7-0.8-51.4-1.9-77.1-3.7c-14.9-1-30-2.5-44.5-5.9c-26.5-6.2-42.2-24-47.9-50.4c-5-23.1-6.9-46.6-7.7-70.2c-0.8-21.3-1.5-42.6-1.1-63.9c0.6-31.3,2.3-62.5,7.9-93.4c4.6-25.1,17.7-43.6,41.8-52.7c8.9-3.4,18.8-4.6,28.4-5.6c34.5-3.8,69.2-5,103.8-5.6c15.1-0.3,30.3-0.5,45.4-0.7c13.5-0.2,27-0.5,40.5-0.3c25,0.3,49.9,0.7,74.9,1.6c22.2,0.8,44.3,1.9,66.5,3.7c13.3,1.1,26.8,2.3,39.6,5.7c26.3,6.8,42,24.8,46.9,51.3c3.2,17.3,5.5,34.9,6.7,52.5C672.6,381.9,673.4,405,673.3,428.1L673.3,428.1z"/>
        </symbol>
    </defs>
    <defs>
        <symbol id="calendar" viewBox="0 0 448 512">
            <path d="M148 288h-40c-6.6 0-12-5.4-12-12v-40c0-6.6 5.4-12 12-12h40c6.6 0 12 5.4 12 12v40c0 6.6-5.4 12-12 12zm108-12v-40c0-6.6-5.4-12-12-12h-40c-6.6 0-12 5.4-12 12v40c0 6.6 5.4 12 12 12h40c6.6 0 12-5.4 12-12zm96 0v-40c0-6.6-5.4-12-12-12h-40c-6.6 0-12 5.4-12 12v40c0 6.6 5.4 12 12 12h40c6.6 0 12-5.4 12-12zm-96 96v-40c0-6.6-5.4-12-12-12h-40c-6.6 0-12 5.4-12 12v40c0 6.6 5.4 12 12 12h40c6.6 0 12-5.4 12-12zm-96 0v-40c0-6.6-5.4-12-12-12h-40c-6.6 0-12 5.4-12 12v40c0 6.6 5.4 12 12 12h40c6.6 0 12-5.4 12-12zm192 0v-40c0-6.6-5.4-12-12-12h-40c-6.6 0-12 5.4-12 12v40c0 6.6 5.4 12 12 12h40c6.6 0 12-5.4 12-12zm96-260v352c0 26.5-21.5 48-48 48H48c-26.5 0-48-21.5-48-48V112c0-26.5 21.5-48 48-48h48V12c0-6.6 5.4-12 12-12h40c6.6 0 12 5.4 12 12v52h128V12c0-6.6 5.4-12 12-12h40c6.6 0 12 5.4 12 12v52h48c26.5 0 48 21.5 48 48zm-48 346V160H48v298c0 3.3 2.7 6 6 6h340c3.3 0 6-2.7 6-6z"/>
        </symbol>
    </defs>
    <defs>
        <symbol id="calendar-plus" viewBox="0 0 448 512">
            <path d="M336 292v24c0 6.6-5.4 12-12 12h-76v76c0 6.6-5.4 12-12 12h-24c-6.6 0-12-5.4-12-12v-76h-76c-6.6 0-12-5.4-12-12v-24c0-6.6 5.4-12 12-12h76v-76c0-6.6 5.4-12 12-12h24c6.6 0 12 5.4 12 12v76h76c6.6 0 12 5.4 12 12zm112-180v352c0 26.5-21.5 48-48 48H48c-26.5 0-48-21.5-48-48V112c0-26.5 21.5-48 48-48h48V12c0-6.6 5.4-12 12-12h40c6.6 0 12 5.4 12 12v52h128V12c0-6.6 5.4-12 12-12h40c6.6 0 12 5.4 12 12v52h48c26.5 0 48 21.5 48 48zm-48 346V160H48v298c0 3.3 2.7 6 6 6h340c3.3 0 6-2.7 6-6z"/>
        </symbol>
    </defs>
    <defs>
        <symbol id="3D" viewBox="0 0 110 100">
            <text x="5" y="67" color="#000" font-size="80px" font-weight="bold" transform="scale(1,1.3)">3D</text>
            <text x="2" y="70" font-size="80px" font-weight="bold" transform="scale(1,1.3)">3D</text>
        </symbol>
    </defs>
    <defs>
        <symbol id="stopwatch" viewBox="0 0 448 512">
            <path fill="currentColor"
                  d="M432 304c0 114.9-93.1 208-208 208S16 418.9 16 304c0-104 76.3-190.2 176-205.5V64h-28c-6.6 0-12-5.4-12-12V12c0-6.6 5.4-12 12-12h120c6.6 0 12 5.4 12 12v40c0 6.6-5.4 12-12 12h-28v34.5c37.5 5.8 71.7 21.6 99.7 44.6l27.5-27.5c4.7-4.7 12.3-4.7 17 0l28.3 28.3c4.7 4.7 4.7 12.3 0 17l-29.4 29.4-.6.6C419.7 223.3 432 262.2 432 304zm-176 36V188.5c0-6.6-5.4-12-12-12h-40c-6.6 0-12 5.4-12 12V340c0 6.6 5.4 12 12 12h40c6.6 0 12-5.4 12-12z"/>
        </symbol>
    </defs>
    <defs>
        <symbol id="flag-en" viewBox="0 0 500 500">
            <rect width="500" height="500" x="0" y="0" fill="#fff"/>
            <path d="M188 0L188 188L0 188L0 316L188 316L188 500L312 500L312 316L500 316L500 188L312 188L312 0Z"
                  fill="#E3061C"/>
            <path d="M0 110L130 168L0 168Z" fill="#E3061C"/>
            <path d="M0 390L130 336L0 336Z" fill="#E3061C"/>
            <path d="M500 110L370 168L500 168Z" fill="#E3061C"/>
            <path d="M500 390L370 336L500 336Z" fill="#E3061C"/>
            <path d="M0 82L168 158L168 0L0 0Z" fill="#243875"/>
            <path d="M500 82L332 158L332 0L500 0Z" fill="#243875"/>
            <path d="M0 418L168 342L168 500L0 500Z" fill="#243875"/>
            <path d="M500 418L332 342L332 500L500 500Z" fill="#243875"/>
        </symbol>
    </defs>
    <defs>
        <symbol id="flag-fr" viewBox="0 0 500 500">
            <rect width="160" height="500" x="0" y="0" fill="#243875"/>
            <rect width="180" height="500" x="160" y="0" fill="#fff"/>
            <rect width="160" height="500" x="340" y="0" fill="#E3061C"/>
        </symbol>
    </defs>
    <defs>
        <symbol id="info-kiwi" viewBox="0 0 841.9 841.9">
            <path d="M417.3,333.1c29.5,0,53.4-23.9,53.4-53.4c0-29.5-23.9-53.4-53.4-53.4c-29.5,0-53.4,23.9-53.4,53.4C363.9,309.2,387.8,333.1,417.3,333.1L417.3,333.1z"/>
            <path d="M413.8,618.5c16-26.4,29.4-41.1,29.4-89.7V358.3c-18.5,0-34.4,7-47.7,21.1c-13.3,14-19.9,30.8-19.9,50.4v99.1c0,4.7-0.4,9.3-0.9,13.8c0,0.6,0.1,1.1,0.1,1.7C376.1,591.6,394.7,610.7,413.8,618.5L413.8,618.5z"/>
            <path d="M678.4,423.1c-0.6,112.3-68.6,215.8-172.8,258.9c-21.1,8.7-44.8,16.5-67.9,16.9c-28.2,0.5-56.7-4.8-83.3-13.7c-52.1-17.3-98.4-50.1-132.2-93.4c-69.4-88.9-78.3-214.7-22-312.5c27.3-47.4,68.5-86.3,117.4-110.7c23.7-11.8,49.9-21.3,76.4-24.6c24.1-2.9,50.2,1.5,73.6,7.4c107.5,27.2,190.6,119,207.5,228.6C677.3,394.3,678.3,408.7,678.4,423.1c0,2.2,46,0.8,46-3.8c-0.7-121.2-80.3-231-196.1-268c-62.1-19.8-132.4-17.6-195.2-2.1c-56.5,14-107.9,44.9-146.3,88.6c-81.3,92.5-92.3,231.6-26.3,335.6c31.1,48.9,77.3,87.7,130.9,109.8c61,25.2,129.1,26.1,193.4,15c118.8-20.5,216-112.6,235.8-232.7c2.5-15.3,3.7-30.7,3.8-46.2C724.4,417.2,678.4,418.3,678.4,423.1L678.4,423.1z"/>
        </symbol>
    </defs>
    <defs>
        <symbol id="three-arrows" viewBox="0 0 82.2 167">
            <path d="m-17 116 47 47c3 3 7.1 4.6 11.1 4.6s8-1.5 11.1-4.6l47-47-6.5-6.5-47 47c-1.3 1.3-2.9 1.9-4.6 1.9s-3.3-.6-4.6-1.9l-47-47z"/>
            <path opacity=".5"
                  d="m41.1 109s-.1 0 0 0c-.1 0-.1 0 0 0-4 0-8.1-1.5-11.1-4.6l-47-47 6.5-6.5 47 47c1.3 1.3 2.9 1.9 4.6 1.9s3.3-.6 4.6-1.9l47-47 6.5 6.5-47 47c-3.1 3-7.2 4.6-11.1 4.6m-58.1-51.6"/>
            <path opacity=".1"
                  d="m41.1 58.1s-.1 0 0 0c-.1 0-.1 0 0 0-4 0-8.1-1.5-11.1-4.6l-47-47 6.5-6.5 47 47c1.3 1.3 2.9 1.9 4.6 1.9s3.3-.6 4.6-1.9l47-47 6.5 6.5-47 47c-3.1 3-7.2 4.6-11.1 4.6m-58.1-51.6"/>
        </symbol>
    </defs>
    <defs>
        <symbol id="beta-button" viewBox="170 110 500 620">
            <path fill="#98C21D"
                  d="M674.5,372.5c0.6-32.5-5-64.2-16.7-95.3c-11.7-31.1-29.9-59.4-54.4-84.8c-24.1-24.9-51.6-43.9-82.5-56.9c-30.9-13.1-62.8-20-95.5-20.8c-32.7-0.8-64.6,4.6-95.7,16.3c-31.1,11.7-59.4,29.9-84.8,54.4c-24.9,24.1-43.9,51.5-56.9,82.5c-13.1,30.9-19.9,62.9-20.4,95.9c-0.6,33,5.1,65.2,17.1,96.5c12,31.4,30,59.5,54,84.4l175.7,182L597.1,550c25.4-24.6,44.6-52.2,57.4-82.9C667.2,436.5,673.9,405,674.5,372.5"/>
        </symbol>
    </defs>
    <defs>
        <symbol id="more-text-fr" viewBox="170 110 500 620">
            <path fill="#fff" stroke="#fff" stroke-width="1"
                  d="M257.3,414.9h-22.7v-11.2h23.9v-4.5h-29.3v37.9h29.7l0.7-4.5h-25.1v-13.1h22.7V414.9L257.3,414.9zM282.1,437.1v-15.5c0-6.7,0-12.1-0.3-17h0.1c2.7,4.4,17.6,24.9,23.2,32.5h6v-37.9h-5v14.2c0,6.1-0.1,12.2,0.3,17.1h-0.1c-2.1-3.9-14.4-19.5-22.9-31.3h-6.4v37.9H282.1L282.1,437.1z M353.8,426c1.3,7,6.6,11.8,17.2,11.8c11.4,0,16.2-5.2,16.2-11.2c0-5.3-2.2-9.5-15.9-11.8c-8.6-1.4-10.2-3.4-10.2-6.5c0-3.8,3.5-5.7,9-5.7c8,0,9.6,3.4,10.4,6h5.4c-0.4-3.8-3.3-10.3-15.6-10.3c-8.3,0-14.6,3.8-14.6,10.5c0,5.2,2.7,8.8,14.1,10.7c9.8,1.7,11.9,4,11.9,7.7c0,3.5-2.9,6.4-10.4,6.4c-7.4,0-10.7-3.1-12.1-7.6H353.8L353.8,426z M430.3,425.6l5.1,11.5h5.9l-17-37.9h-6.5l-16.3,37.9h5.6l4.9-11.5H430.3L430.3,425.6z M413.6,421c3.8-9,6.4-15.5,7.2-18h0.1c0.9,2.6,3,7.5,7.7,18H413.6L413.6,421z M470.4,437.1l16.9-37.9h-5.8l-9.1,21.1     c-2.5,6.3-4.2,10.3-4.8,12.2h-0.1c-0.7-2.1-2-5.6-5.2-13l-8.6-20.2h-5.9l16.6,37.9H470.4L470.4,437.1z M519.4,398.4c-12.2,0-20,9.1-20,19.6c0,11.2,7.6,19.9,19.9,19.9c12.7,0,20-9.2,20-19.9C539.2,407.4,531.6,398.4,519.4,398.4L519.4,398.4zM519.1,402.8c9.5,0,14.5,7.4,14.5,15.3c0,8.2-4.9,15.3-14.1,15.3c-9.4,0-14.4-7.4-14.4-15.5C505.1,409.8,510.3,402.8,519.1,402.8L519.1,402.8z M557.3,399.2v37.9h5.4v-37.9H557.3L557.3,399.2z M599.1,420.7c6.7,0,8.9,1.8,8.9,7.4v1.2c0,3.2-0.1,6.1,0.5,7.7h5.4c-0.4-1.6-0.4-4.8-0.4-7.7v-1.7c0-6.7-3.4-8.5-5.9-9.2     c4.6-1.2,6.9-4.5,6.9-9.1c0-6.7-5.2-10.2-13-10.2h-18.1v37.9h5.3v-16.3H599.1L599.1,420.7z M588.7,403.5h11.6c5.7,0,8.6,2.1,8.6,6.2c0,4.5-2.9,6.6-8.9,6.6h-11.4V403.5L588.7,403.5z"/>
            <path fill="#fff" stroke="#fff" stroke-width="1"
                  d="M334.9,501.1h5.4v-15.2h12.6c8.4,0,13.6-4.2,13.6-11.6c0-6.3-4.3-11.2-13.7-11.2h-17.8V501.1L334.9,501.1zM340.2,467.7h11.8c6,0,8.9,2.5,8.9,6.7c0,5.5-3.6,7-8.9,7h-11.8V467.7L340.2,467.7z M383.6,501.1H411l0.8-4.5H389v-33.4h-5.3V501.1L383.6,501.1z M426.2,463.2v21.9c0,11.8,6.6,16.8,16.8,16.8c10.2,0,16.7-4.9,16.7-17.2v-21.5h-5.3v21.5c0,9.4-4.2,12.7-11.2,12.7c-5.7,0-11.6-2.7-11.6-12.7v-21.5H426.2L426.2,463.2z M476,490.1c1.3,7,6.6,11.8,17.2,11.8c11.4,0,16.2-5.2,16.2-11.2c0-5.3-2.2-9.5-15.9-11.8c-8.6-1.4-10.2-3.4-10.2-6.5c0-3.8,3.5-5.7,9-5.7c8,0,9.6,3.4,10.4,6h5.4c-0.4-3.8-3.3-10.3-15.6-10.3c-8.3,0-14.6,3.8-14.6,10.5c0,5.2,2.7,8.8,14.1,10.7c9.8,1.7,11.9,3.9,11.9,7.7c0,3.5-2.9,6.4-10.4,6.4c-7.4,0-10.7-3.1-12.1-7.6H476L476,490.1z"/>
        </symbol>
    </defs>
    <defs>
        <symbol id="free-try-text-fr" viewBox="170 110 500 620">
            <path fill="#fff" stroke="#fff" stroke-width="1"
                  d="M294.7,469.8h-19.4v5h13.7v1.2c0,8.3-5,12.8-13.8,12.8c-10.4,0-16-7.3-16-17.3c0-9.4,5.6-16.9,16.2-16.9c8.2,0,11.9,3.8,13.5,7.8h6.2c-1.6-6.2-7-12.7-19.6-12.7c-14.1,0-22.5,9.7-22.5,22.1c0,13.1,8.1,21.9,21.4,21.9c8.3,0,12.6-2.6,15.4-7.1c0,1.8,0.3,5.2,0.5,6.2h4.6V469.8L294.7,469.8z M333.7,474.7c7.4,0,9.9,2,9.9,8.2v1.4c0,3.6-0.1,6.8,0.5,8.6h6.1c-0.5-1.8-0.5-5.3-0.5-8.6v-1.8c0-7.4-3.8-9.5-6.6-10.3c5.2-1.4,7.7-5,7.7-10.1c0-7.5-5.8-11.4-14.4-11.4h-20.1v42.2h5.9v-18.2H333.7L333.7,474.7z M322.1,455.5h13c6.4,0,9.6,2.3,9.6,6.9c0,5.1-3.3,7.4-9.9,7.4h-12.7V455.5L322.1,455.5z M399,480.1l5.6,12.8h6.5l-18.9-42.2h-7.2L367,492.9h6.2l5.5-12.8H399L399,480.1z M380.4,475c4.3-10,7.1-17.3,8-20h0.1c0.9,2.9,3.4,8.4,8.6,20H380.4L380.4,475z M433.4,492.9h6v-37.1h16v-5h-38.1v5h16.1V492.9L433.4,492.9z M473.1,450.7V475c0,13.1,7.3,18.7,18.7,18.7c11.4,0,18.5-5.5,18.5-19.2v-23.9h-5.9v23.9c0,10.5-4.6,14.1-12.4,14.1c-6.4,0-12.9-3-12.9-14.1v-23.9H473.1L473.1,450.7z M532.9,450.7v42.2h6v-42.2H532.9L532.9,450.7z M572.8,492.9h6v-37.1h16v-5     h-38.1v5h16.1V492.9L572.8,492.9z"/>
            <path fill="#fff" stroke="#fff" stroke-width="1"
                  d="M341.5,396.8h-25.3v-12.5h26.6v-5h-32.6v42.2h33.1l0.8-5h-27.9v-14.6h25.3V396.8L341.5,396.8z M359.9,409.3c1.4,7.8,7.4,13.2,19.1,13.2c12.7,0,18.1-5.8,18.1-12.5c0-5.9-2.4-10.6-17.6-13.2c-9.6-1.6-11.4-3.8-11.4-7.3c0-4.2,3.9-6.3,10-6.3c8.9,0,10.7,3.8,11.6,6.7h6c-0.5-4.3-3.7-11.5-17.4-11.5c-9.2,0-16.2,4.2-16.2,11.6c0,5.8,3,9.7,15.7,11.9c10.9,1.8,13.3,4.4,13.3,8.6c0,3.9-3.2,7.1-11.5,7.1c-8.3,0-11.9-3.4-13.4-8.4H359.9L359.9,409.3z M414,409.3c1.4,7.8,7.4,13.2,19.1,13.2c12.7,0,18.1-5.8,18.1-12.5c0-5.9-2.4-10.6-17.6-13.2c-9.6-1.6-11.4-3.8-11.4-7.3c0-4.2,3.9-6.3,10-6.3c8.9,0,10.7,3.8,11.6,6.7h6c-0.5-4.3-3.7-11.5-17.4-11.5c-9.2,0-16.2,4.2-16.2,11.6c0,5.8,3,9.7,15.7,11.9c10.9,1.8,13.3,4.4,13.3,8.6c0,3.9-3.2,7.1-11.5,7.1c-8.3,0-11.9-3.4-13.4-8.4H414L414,409.3z M499,408.8l5.6,12.8h6.5l-18.9-42.2h-7.2L467,421.6h6.2l5.5-12.8H499L499,408.8z M480.4,403.7c4.3-10,7.1-17.3,8-20h0.1c1,2.9,3.4,8.4,8.6,20H480.4L480.4,403.7z M528.7,379.4v42.2h6v-42.2H528.7L528.7,379.4z"/>
        </symbol>
    </defs>
    <defs>
        <symbol id="more-text-en" viewBox="0 220 380 3">
            <path fill="#fff" stroke="#fff" stroke-width="1"
                  d="M130.5,261.4v28.8h3.7v-28.8H130.5L130.5,261.4zM152.7,290.1v-12.3c0-4.8-0.1-8.2-0.3-11.9l0.1,0c1.5,3.1,3.4,6.4,5.4,9.6l9.1,14.6h3.8v-28.8h-3.5v12c0,4.5,0.1,8,0.4,11.8l-0.1,0c-1.4-2.9-3-6-5.2-9.4l-9.2-14.6h-4.1v28.8H152.7L152.7,290.1z M185.9,290.1h3.7v-13h10.9V274h-10.9v-9.6h11.8v-3.1h-15.5V290.1L185.9,290.1z M226.8,260.9c-7.7,0-13.4,6-13.4,15.1c0,8.7,5.3,14.6,12.9,14.6c7.3,0,13.4-5.3,13.4-15.2C239.8,266.9,234.7,260.9,226.8,260.9L226.8,260.9z M226.7,263.9c6.2,0,9.2,6,9.2,11.7c0,6.5-3.3,12-9.2,12c-5.9,0-9.2-5.5-9.2-11.7C217.5,269.6,220.5,263.9,226.7,263.9L226.7,263.9z"/>
            <path fill="#fff" stroke="#fff" stroke-width="1"
                  d="M145.9,238.9h3.6l-1.8-28.8h-4.7l-5.1,13.9c-1.3,3.6-2.3,6.8-3,9.7h-0.1c-0.7-3-1.7-6.1-2.9-9.7l-4.9-13.9h-4.7l-2,28.8h3.5l0.8-12.3c0.3-4.3,0.5-9.1,0.6-12.7h0.1c0.8,3.4,2,7.1,3.3,11.2l4.7,13.7h2.8l5.1-14c1.5-4,2.6-7.6,3.6-10.9h0.1c0,3.6,0.2,8.4,0.4,12.4L145.9,238.9L145.9,238.9z M175.4,209.6c-7.7,0-13.4,6-13.4,15.1c0,8.7,5.3,14.6,12.9,14.6c7.3,0,13.4-5.3,13.4-15.2C188.3,215.7,183.3,209.6,175.4,209.6L175.4,209.6z M175.2,212.7c6.2,0,9.2,6,9.2,11.7c0,6.5-3.3,12-9.2,12c-5.8,0-9.2-5.5-9.2-11.7C166,218.4,169.1,212.7,175.2,212.7L175.2,212.7z M201.7,238.9h3.7v-12.5h3.5c3.4,0.1,4.9,1.6,5.8,5.6c0.8,3.6,1.5,6.1,1.9,6.9h3.8c-0.6-1.1-1.3-3.9-2.2-7.9c-0.7-3-2-5-4.2-5.8v-0.1c3-1,5.4-3.5,5.4-7.3c0-2.2-0.8-4.2-2.3-5.5c-1.8-1.6-4.4-2.3-8.3-2.3c-2.6,0-5.3,0.2-7.1,0.6V238.9L201.7,238.9z M205.4,213.1c0.6-0.2,1.9-0.3,3.7-0.3c3.9,0,6.6,1.7,6.6,5.4c0,3.3-2.5,5.5-6.5,5.5h-3.8V213.1L205.4,213.1z M248.1,222.3h-11.2v-9.1h11.8v-3.1h-15.5v28.8h16.2v-3.1h-12.5v-10.4h11.2V222.3L248.1,222.3z"/>
        </symbol>
    </defs>
    <defs>
        <symbol id="free-try-text-en" viewBox="0 220 400 3">
            <path fill="#fff" stroke="#fff" stroke-width="1"
                  d="M133.54,291.33h3.76V265.71h8.8v-3.16H124.79v3.16h8.75v25.62Zm24.3,0h3.71V278.86h3.5c3.38.13,4.91,1.62,5.77,5.59a37.18,37.18,0,0,0,1.92,6.88h3.84c-.6-1.11-1.28-3.89-2.22-7.9-.68-3-2-5-4.23-5.81v-.13a7.54,7.54,0,0,0,5.43-7.34,7.15,7.15,0,0,0-2.27-5.47c-1.79-1.62-4.35-2.35-8.32-2.35a39.07,39.07,0,0,0-7.13.6v28.4Zm3.71-25.79a15.21,15.21,0,0,1,3.67-.35c3.93.05,6.62,1.67,6.62,5.38,0,3.29-2.52,5.47-6.49,5.47h-3.8v-10.5Zm27.8-3v28.78h3.71V262.55ZM223,282.27l3.08,9.06h4l-9.82-28.78h-4.49l-9.77,28.78h3.84l3-9.06Zm-9.43-2.9,2.81-8.33c.56-1.75,1-3.5,1.46-5.2h.08c.43,1.66.85,3.37,1.5,5.25l2.81,8.28Zm29.24,12h16v-3.12h-12.3V262.55h-3.72v28.78Z"/>
            <path fill="#fff" stroke="#fff" stroke-width="1"
                  d="M139.8,240.09h3.71v-13H154.4V224H143.51v-9.56H155.3v-3.12H139.8v28.78Zm29.33,0h3.72V227.62h3.5c3.37.13,4.91,1.62,5.76,5.59a37.18,37.18,0,0,0,1.92,6.88h3.85c-.6-1.11-1.28-3.89-2.22-7.9-.69-3-2-5-4.23-5.81v-.13a7.55,7.55,0,0,0,5.42-7.34,7.18,7.18,0,0,0-2.26-5.47c-1.8-1.62-4.36-2.34-8.33-2.34a39.14,39.14,0,0,0-7.13.59v28.4Zm3.72-25.79a15.24,15.24,0,0,1,3.67-.34c3.93,0,6.62,1.66,6.62,5.38,0,3.28-2.52,5.46-6.49,5.46h-3.8V214.3Zm42.69,9.22H204.36v-9.09h11.82v-3.12H200.64v28.78h16.19V237H204.36V226.6h11.18v-3.08Zm29.55,0H233.9v-9.09h11.83v-3.12H230.19v28.78h16.18V237H233.9V226.6h11.19v-3.08Z"/>
        </symbol>
    </defs>
    <defs>
        <symbol id="login" viewBox="0 0 600 600">
            <circle cx="300" cy="300" r="285" fill="#fff"/>
            <path fill="#98c21d"
                  d="m452 384c-41.2 41.2-108 41.2-149-.00042-4.76-4.76-8.96-9.86-12.6-15.2l-21.6 1.27a14.4 14.4 0 01-11-4.19l-15.8-15.8-17 17c-5.62 5.62-14.7 5.62-20.4 0l-17-17-17 17c-5.62 5.62-14.7 5.62-20.4 0l-47.5-47.5c-5.62-5.62-5.62-14.7 0-20.4l33.1-33.1c2.7-2.7 6.36-4.22 10.2-4.22h137c4.93-9.79 11.5-19 19.7-27.2 41.2-41.2 108-41.2 149-.00042 41.4 41.4 41.4 108 0 149zm-54.3-95c-11.2 11.2-11.2 29.5 0 40.7 11.2 11.2 29.5 11.2 40.7 0 11.2-11.2 11.2-29.5 0-40.7-11.2-11.2-29.5-11.2-40.7 0z"/>
        </symbol>
    </defs>
    <defs>
        <symbol id="logout" viewBox="0 0 500 500">
            <circle cx="250" cy="250" r="200" fill="#fff"/>
            <path fill="#98C21D"
                  d="M256 8C119 8 8 119 8 256s111 248 248 248 248-111 248-248S393 8 256 8zm121.6 313.1c4.7 4.7 4.7 12.3 0 17L338 377.6c-4.7 4.7-12.3 4.7-17 0L256 312l-65.1 65.6c-4.7 4.7-12.3 4.7-17 0L134.4 338c-4.7-4.7-4.7-12.3 0-17l65.6-65-65.6-65.1c-4.7-4.7-4.7-12.3 0-17l39.6-39.6c4.7-4.7 12.3-4.7 17 0l65 65.7 65.1-65.6c4.7-4.7 12.3-4.7 17 0l39.6 39.6c4.7 4.7 4.7 12.3 0 17L312 256l65.6 65.1z"/>
        </symbol>
    </defs>
    <defs>
        <symbol id="home" viewBox="0 0 396 394">
            <path fill="#fff"
                  d="M198.9,384.7c104.3,0,188.9-84.6,188.9-188.9C387.7,91.6,303.2,7,198.9,7C94.6,7,10,91.6,10,195.9C10,300.2,94.6,384.7,198.9,384.7L198.9,384.7z"/>
            <path fill="#98C21D"
                  d="M315.5,172.2c-35.1-33.5-70.4-66.9-105.6-100.2c-7.8-7.4-13.6-7.5-21.4-0.2c-35.5,33.5-70.9,67.2-106.3,100.8c-6.9,6.5-7.4,13.3-2.3,20.2c6.6,8.9,10.8,10,21.1,4.6c0,36.7,0,72.9,0,109.4c22.9,0,44.9,0,67.9,0l60.9-0.1c23.1,0,45.1,0,67.7,0c0-36.6,0-72.6,0-108c4.9,0.8,8.9,2.6,12,1.7C322.2,196.3,325.3,181.6,315.5,172.2L315.5,172.2z M186.9,252.7c0.2-1.6,0.3-3.1,0.3-4.8v-34.1c0-6.7,2.3-12.5,6.9-17.4c4.6-4.8,10-7.2,16.4-7.2V248c0,16.7-4.6,21.8-10.1,30.9c-6.6-2.7-13-9.3-13.4-25.5C186.9,253.1,186.9,252.9,186.9,252.7L186.9,252.7z M219.9,162.2c0,10.2-8.2,18.4-18.4,18.4c-10.2,0-18.4-8.2-18.4-18.4c0-10.2,8.2-18.4,18.4-18.4C211.7,143.8,219.9,152,219.9,162.2L219.9,162.2z"/>
        </symbol>
    </defs>
    <defs>
        <symbol id="contact" viewBox="0 0 396 394">
            <path fill="#98C21D"
                  d="M198,385.9c104.1,0,188.4-84.6,188.4-188.9C386.4,92.7,302.1,8.1,198,8.1S9.6,92.7,9.6,197C9.6,301.3,93.9,385.9,198,385.9L198,385.9z"/>
            <path fill="#fff"
                  d="M77.6,143.5c-0.6,2.5-1,3.4-1,4.4c0,40.2,0.2,80.3-0.2,120.5c-0.1,8.5,4.1,9.2,10.8,9.1c73.7-0.1,147.4-0.2,221.1,0.1c9.4,0,11.3-3.3,11.2-11.9c-0.4-37.4-0.2-74.9-0.2-112.3c0-2.9-0.3-5.8-0.6-9.7c-3.2,2.2-5.5,3.7-7.6,5.3c-32.8,25.3-65.5,50.9-98.4,76c-17.8,13.6-11.8,13.6-29.2,0.3C148.5,198.5,113.7,171.3,77.6,143.5L77.6,143.5z M80.3,116.4c38.5,29.4,75.5,57.5,112.3,86c5.2,4,8.3,1.9,12.3-1.2c20.7-16,41.5-31.8,62.3-47.7c15.5-11.9,31-23.8,48.3-37.1C236,116.4,159.1,116.4,80.3,116.4L80.3,116.4z"/>
            <path fill="#fff"
                  d="M77.6,143.5c36,27.9,70.8,55,105.9,81.8c17.4,13.3,11.5,13.3,29.2-0.3c32.9-25.2,65.6-50.7,98.4-76c2.1-1.6,4.4-3,7.6-5.3c0.2,3.9,0.6,6.8,0.6,9.7c0,37.4-0.2,74.9,0.2,112.3c0.1,8.6-1.9,11.9-11.2,11.9c-73.7-0.4-147.4-0.2-221.1-0.1c-6.6,0-10.8-0.6-10.8-9.1c0.3-40.2,0.2-80.3,0.2-120.5C76.7,146.9,77.1,146,77.6,143.5L77.6,143.5z"/>
            <path fill="#fff"
                  d="M80.3,116.4c78.9,0,155.7,0,235.2,0c-17.4,13.4-32.8,25.3-48.3,37.1c-20.8,15.9-41.6,31.7-62.3,47.7c-4,3.1-7.2,5.2-12.3,1.2C155.8,173.9,118.7,145.7,80.3,116.4L80.3,116.4z"/>
        </symbol>
    </defs>
    <defs>
        <symbol id="project" viewBox="0 0 400 400">
            <circle cx="200" cy="200" r="200" fill="#fff"/>
            <path fill="#98c21d"
                  d="m365 219-36.2 62.1a32 32 0 01-27.6 15.9h-200c-9.26 0-15-10-10.4-18l36.2-62.1a32 32 0 0127.6-15.9h200c9.26 0 15 10 10.4 18zm-210-34h164v-24c0-13.3-10.7-24-24-24h-80l-32-32h-80c-13.3 0-24 10.7-24 24v139l34.5-59.2c8.57-14.7 24.5-23.8 41.5-23.8z"/>
        </symbol>
    </defs>
    <defs>
        <symbol id="user-shield" viewBox="0 0 640 512">
            <path d="M622.3 271.1l-115.2-45c-4.1-1.6-12.6-3.7-22.2 0l-115.2 45c-10.7 4.2-17.7 14-17.7 24.9 0 111.6 68.7 188.8 132.9 213.9 9.6 3.7 18 1.6 22.2 0C558.4 489.9 640 420.5 640 296c0-10.9-7-20.7-17.7-24.9zM496 462.4V273.3l95.5 37.3c-5.6 87.1-60.9 135.4-95.5 151.8zM224 256c70.7 0 128-57.3 128-128S294.7 0 224 0 96 57.3 96 128s57.3 128 128 128zm96 40c0-2.5.8-4.8 1.1-7.2-2.5-.1-4.9-.8-7.5-.8h-16.7c-22.2 10.2-46.9 16-72.9 16s-50.6-5.8-72.9-16h-16.7C60.2 288 0 348.2 0 422.4V464c0 26.5 21.5 48 48 48h352c6.8 0 13.3-1.5 19.2-4-54-42.9-99.2-116.7-99.2-212z"></path>
        </symbol>
    </defs>
</svg>